<?xml version="1.0" encoding="UTF-8" standalone="no"?>
<!-- Uploaded to: SVG Repo, www.svgrepo.com, Generator: SVG Repo Mixer Tools -->

<svg
   fill="#000000"
   height="800px"
   width="800px"
   version="1.1"
   id="Layer_1"
   viewBox="0 0 330 330"
   xml:space="preserve"
   sodipodi:docname="left_arrow_hover.svg"
   inkscape:version="1.3.2 (091e20e, 2023-11-25, custom)"
   xmlns:inkscape="http://www.inkscape.org/namespaces/inkscape"
   xmlns:sodipodi="http://sodipodi.sourceforge.net/DTD/sodipodi-0.dtd"
   xmlns="http://www.w3.org/2000/svg"
   xmlns:svg="http://www.w3.org/2000/svg"><defs
   id="defs1" /><sodipodi:namedview
   id="namedview1"
   pagecolor="#ffffff"
   bordercolor="#000000"
   borderopacity="0.25"
   inkscape:showpageshadow="2"
   inkscape:pageopacity="0.0"
   inkscape:pagecheckerboard="0"
   inkscape:deskcolor="#d1d1d1"
   inkscape:zoom="0.97138794"
   inkscape:cx="480.24068"
   inkscape:cy="458.62212"
   inkscape:window-width="2560"
   inkscape:window-height="1334"
   inkscape:window-x="-11"
   inkscape:window-y="-11"
   inkscape:window-maximized="1"
   inkscape:current-layer="Layer_1"
   inkscape:rotation="90" />
<path
   id="XMLID_24_"
   d="M 330,315 V 15 C 330,6.716 323.284,0 315,0 H 15 C 6.716,0 0,6.716 0,15 v 300 c 0,8.284 6.716,15 15,15 h 300 c 8.284,0 15,-6.716 15,-15 z m -135.606,-59.394 -80,-79.998 C 111.581,172.795 110,168.98 110,165.002 c 0,-3.979 1.58,-7.793 4.394,-10.607 l 80,-80.002 c 5.857,-5.858 15.355,-5.858 21.213,0 5.858,5.857 5.858,15.355 0,21.213 l -69.393,69.396 69.393,69.392 c 5.858,5.857 5.858,15.355 0,21.213 -5.858,5.858 -15.356,5.858 -21.213,-0.001 z"
   style="fill:#0b5917;fill-opacity:1" />
<path
   style="fill:#ffffff;stroke-width:0.300273"
   d="m 110.38614,162.44768 c 0.14624,-0.90832 0.75416,-2.66492 1.35092,-3.90355 1.05849,-2.19694 2.0926,-3.26127 42.2627,-43.4978 26.9177,-26.962202 41.79409,-41.651707 42.95765,-42.417991 5.93726,-3.910075 13.85706,-2.934406 18.76451,2.31167 2.09471,2.239257 3.23346,4.508064 3.86073,7.692012 0.41986,2.131152 0.41765,2.570506 -0.0242,4.81312 -1.03809,5.26918 1.51065,2.449775 -37.94624,41.976019 l -35.52341,35.58585 34.54673,34.52789 c 19.0007,18.99033 35.21438,35.40618 36.03039,36.47966 2.68586,3.53332 3.69265,7.58119 2.87853,11.57335 -0.63759,3.12654 -1.70015,5.20321 -3.824,7.47361 -4.91353,5.25257 -12.9302,6.22781 -18.78644,2.28539 -1.07732,-0.72526 -17.68021,-17.12571 -42.93428,-42.41077 -40.25081,-40.30022 -41.20197,-41.27892 -42.25707,-43.48027 -0.59367,-1.23863 -1.21637,-3.13035 -1.38376,-4.20382 -0.34419,-2.20719 -0.34248,-2.50818 0.0272,-4.80437 z"
   id="path1" /><path
   style="fill:#ffffff;stroke-width:0.300273"
   d="m 110.38614,162.44768 c 0.14624,-0.90832 0.75416,-2.66492 1.35092,-3.90355 1.05849,-2.19694 2.0926,-3.26127 42.2627,-43.4978 26.9177,-26.962202 41.79409,-41.651707 42.95765,-42.417991 5.93645,-3.909543 13.85713,-2.934336 18.76308,2.310144 4.65766,4.979061 5.39601,11.698793 1.95102,17.756273 -0.54628,0.960547 -12.61352,13.252564 -36.20163,36.875964 l -35.3822,35.43513 34.54731,34.52847 c 19.00102,18.99066 35.21496,35.40676 36.03096,36.48024 2.70577,3.5595 3.6973,7.55847 2.87448,11.59326 -0.63358,3.10688 -1.6997,5.18715 -3.81994,7.4537 -4.91353,5.25257 -12.9302,6.22781 -18.78644,2.28539 -1.07733,-0.72526 -17.68022,-17.12571 -42.93429,-42.41077 -40.2508,-40.30022 -41.20196,-41.27892 -42.25707,-43.48027 -0.59367,-1.23863 -1.21636,-3.13035 -1.38375,-4.20382 -0.34419,-2.20719 -0.34248,-2.50818 0.0272,-4.80437 z"
   id="path2" /><path
   style="fill:#ffffff;stroke-width:0.300273"
   d="m 110.50469,161.926 c 0.95734,-4.40648 -1.28985,-1.98536 43.51197,-46.87967 26.9342,-26.989806 41.77599,-41.650923 42.94075,-42.417991 5.93645,-3.909543 13.85713,-2.934336 18.76308,2.310144 4.37105,4.672668 5.30993,10.873339 2.51953,16.639776 -1.06229,2.195246 -2.06493,3.231323 -36.61906,37.840271 l -35.52686,35.58322 35.37911,35.43134 c 23.59134,23.62616 35.65209,35.91139 36.19842,36.87215 1.95962,3.44619 2.57796,6.92632 1.85012,10.41287 -0.63317,3.03307 -1.70366,5.10107 -3.80126,7.34341 -4.92671,5.26667 -12.91449,6.23839 -18.78644,2.28539 -1.07733,-0.72526 -17.68022,-17.12571 -42.93429,-42.41077 -40.2508,-40.30022 -41.20196,-41.27892 -42.25707,-43.48027 -0.99442,-2.07476 -1.71912,-5.07801 -1.6665,-6.90628 0.0119,-0.41287 0.20471,-1.59349 0.4285,-2.62359 z"
   id="path3" /><path
   style="fill:#ffffff;stroke-width:0.300273"
   d="m 110.50469,161.926 c 0.95734,-4.40648 -1.28985,-1.98536 43.51197,-46.87967 26.9342,-26.989806 41.77599,-41.650923 42.94075,-42.417991 5.93645,-3.909543 13.85713,-2.934336 18.76308,2.310144 2.12036,2.266671 3.18636,4.346822 3.82007,7.454316 0.6319,3.098647 0.22667,5.995742 -1.28306,9.172961 -1.05775,2.226011 -1.7602,2.952089 -36.62033,37.85218 l -35.5419,35.58264 35.54201,35.58206 c 34.86175,34.90103 35.56264,35.62549 36.62033,37.8516 2.77529,5.84115 1.82642,11.96264 -2.58532,16.67881 -1.36487,1.45904 -2.41691,2.23299 -4.31134,3.17172 -2.30934,1.14433 -2.73961,1.25298 -5.48526,1.3852 -3.6355,0.17506 -6.23055,-0.49808 -8.93266,-2.31707 -1.0905,-0.73409 -17.50402,-16.95276 -42.92637,-42.41676 -44.97417,-45.04787 -42.55843,-42.43914 -43.52543,-47.00253 -0.52089,-2.45815 -0.51842,-3.55943 0.0134,-6.00761 z"
   id="path4" /><path
   style="fill:#ffffff;stroke-width:0.300273"
   d="m 110.50469,161.926 c 0.95734,-4.40648 -1.28985,-1.98536 43.51197,-46.87967 26.9342,-26.989806 41.77599,-41.650923 42.94075,-42.417991 5.64884,-3.720131 13.15475,-3.052772 18.08255,1.607739 4.95433,4.685604 6.14928,11.147858 3.20771,17.34718 -1.04581,2.204004 -1.82684,3.011155 -36.6105,37.834682 l -35.5419,35.58264 35.54201,35.58206 c 34.86175,34.90103 35.56264,35.62549 36.62033,37.8516 2.77529,5.84115 1.82642,11.96264 -2.58532,16.67881 -1.36487,1.45904 -2.41691,2.23299 -4.31134,3.17172 -2.30934,1.14433 -2.73961,1.25298 -5.48526,1.3852 -3.6355,0.17506 -6.23055,-0.49808 -8.93266,-2.31707 -1.0905,-0.73409 -17.50402,-16.95276 -42.92637,-42.41676 -44.97417,-45.04787 -42.55843,-42.43914 -43.52543,-47.00253 -0.52089,-2.45815 -0.51842,-3.55943 0.0134,-6.00761 z"
   id="path5" /><path
   style="fill:#ffffff;stroke-width:0.300273"
   d="m 110.52642,161.73726 c 1.04151,-4.30292 -1.03262,-2.07614 43.49024,-46.69093 26.9342,-26.989807 41.77599,-41.650923 42.94075,-42.417991 2.43072,-1.600789 5.04849,-2.36525 8.08559,-2.361212 3.90329,0.0052 7.18146,1.306169 9.99417,3.966311 4.98136,4.711163 6.16055,11.0934 3.20557,17.34982 -1.04257,2.207374 -1.76869,2.957869 -36.60557,37.834682 l -35.5419,35.58264 35.54201,35.58206 c 35.00965,35.0491 35.55837,35.61648 36.63416,37.88035 2.78942,5.87 1.84499,11.89925 -2.60988,16.66152 -1.35366,1.44706 -2.41051,2.22368 -4.30061,3.16026 -2.30934,1.14433 -2.73961,1.25298 -5.48526,1.3852 -3.6355,0.17506 -6.23055,-0.49808 -8.93266,-2.31707 -1.0905,-0.73409 -17.50402,-16.95276 -42.92637,-42.41676 -44.97417,-45.04787 -42.55843,-42.43914 -43.52543,-47.00253 -0.52723,-2.48804 -0.51918,-3.90606 0.0352,-6.19635 z"
   id="path6" /><path
   style="fill:#ffffff;stroke-width:0.300273"
   d="m 110.52642,161.73726 c 1.04151,-4.30292 -1.03262,-2.07614 43.49024,-46.69093 27.07789,-27.133802 41.77293,-41.64886 42.94995,-42.423931 2.70623,-1.782062 5.26508,-2.452577 8.81545,-2.309976 2.60745,0.10473 3.16003,0.233603 5.24293,1.22277 6.42845,3.052855 9.91732,9.760629 8.51661,16.3742 -0.99548,4.700223 0.99962,2.516605 -37.92507,41.508547 l -35.52126,35.58264 35.52137,35.58206 c 38.92531,38.9918 36.92939,36.80731 37.92496,41.50797 1.40071,6.61357 -2.08816,13.32134 -8.51661,16.3742 -2.0829,0.98916 -2.63548,1.11804 -5.24293,1.22277 -3.56863,0.14333 -6.18422,-0.54753 -8.83903,-2.33468 -1.0905,-0.73409 -17.50402,-16.95276 -42.92637,-42.41676 -44.70399,-44.77724 -42.45419,-42.35643 -43.50426,-46.81122 -0.55176,-2.34079 -0.54798,-4.06582 0.014,-6.38766 z"
   id="path7" /><path
   style="fill:#ffffff;stroke-width:0.300273"
   d="m 110.46154,161.84713 c 0.92492,-4.22936 -1.10075,-2.05274 43.55512,-46.8008 27.07789,-27.133802 41.77293,-41.64886 42.94995,-42.423931 2.71688,-1.789075 5.26199,-2.452705 8.85328,-2.308458 2.74915,0.110423 3.12788,0.205508 5.49972,1.380803 7.64668,3.789072 10.63003,12.420581 6.90736,19.984532 -1.00846,2.049061 -2.82411,3.921377 -36.59641,37.738664 l -35.53529,35.58264 35.52137,35.58206 c 38.92531,38.9918 36.92939,36.80731 37.92496,41.50797 1.2608,5.95298 -1.57812,12.29959 -6.99977,15.64845 -4.5873,2.8335 -11.05775,2.67093 -15.60778,-0.39215 -1.07864,-0.72615 -17.64288,-17.09486 -42.91739,-42.41077 -44.70399,-44.77724 -42.45419,-42.35643 -43.50426,-46.81122 -0.53349,-2.26325 -0.54761,-4.00631 -0.0509,-6.27779 z"
   id="path8" /><path
   style="fill:#ffffff;stroke-width:0.300273"
   d="m 110.37921,162.14741 c 0.88295,-4.53011 -0.31586,-3.2379 44.75383,-48.24059 32.50238,-32.454067 41.56374,-41.342204 42.74685,-41.929662 2.43365,-1.208402 4.57617,-1.713282 7.27053,-1.713282 4.31354,0 7.63542,1.496777 10.72276,4.831485 4.26645,4.608269 5.1576,10.886964 2.35379,16.583915 -1.00846,2.049061 -2.82411,3.921377 -36.59641,37.738664 l -35.53529,35.58264 35.52137,35.58206 c 38.92531,38.9918 36.92939,36.80731 37.92496,41.50797 0.76773,3.62494 0.0298,7.58565 -2.00367,10.75457 -1.02293,1.5941 -3.51504,4.03983 -5.0948,5 -4.47405,2.71929 -11.04308,2.50824 -15.50908,-0.49827 -1.07864,-0.72615 -17.64288,-17.09486 -42.91739,-42.41077 -44.70399,-44.77724 -42.45419,-42.35643 -43.50426,-46.81122 -0.49733,-2.10986 -0.53731,-3.90413 -0.13319,-5.97751 z"
   id="path9" /><path
   style="fill:#ffffff;stroke-width:0.300273"
   d="m 110.51141,161.59278 c 0.87815,-4.04621 -0.18441,-2.91087 44.48844,-47.53583 32.62352,-32.588555 41.69634,-41.492054 42.88004,-42.0798 2.43367,-1.208398 4.57617,-1.713274 7.27053,-1.713274 4.30992,0 7.63571,1.497095 10.71538,4.823503 4.29101,4.634809 5.17809,10.868298 2.36117,16.591897 -1.00846,2.049061 -2.82411,3.921377 -36.59641,37.738664 l -35.53529,35.58264 35.52137,35.58206 c 38.92531,38.9918 36.92939,36.80731 37.92496,41.50797 0.76773,3.62494 0.0298,7.58565 -2.00367,10.75457 -1.02293,1.5941 -3.51504,4.03983 -5.0948,5 -4.47405,2.71929 -11.04308,2.50824 -15.50908,-0.49827 -1.07864,-0.72615 -17.64288,-17.09486 -42.91739,-42.41077 -44.70399,-44.77724 -42.45419,-42.35643 -43.50426,-46.81122 -0.54854,-2.3271 -0.54879,-4.00803 -8.2e-4,-6.53214 z"
   id="path10" /><path
   style="fill:#ffffff;stroke-width:0.300273"
   d="m 110.51231,161.41091 c 1.00332,-3.96513 0.25879,-3.17263 44.48754,-47.35396 32.62352,-32.588555 41.69634,-41.492054 42.88004,-42.0798 2.43367,-1.208398 4.57617,-1.713274 7.27053,-1.713274 4.30494,0 7.63611,1.497524 10.70523,4.812539 4.31803,4.663993 5.20053,10.722166 2.40456,16.506843 -1.0585,2.189967 -2.06818,3.232948 -36.62672,37.834682 l -35.53822,35.58264 35.5354,35.58206 c 33.77419,33.81852 35.588,35.68891 36.59641,37.73808 2.81676,5.72387 1.92967,11.95716 -2.36128,16.5919 -3.11746,3.36723 -6.37188,4.8235 -10.77936,4.8235 -2.79445,0 -5.27291,-0.63924 -7.57114,-1.95273 -2.10658,-1.20396 -83.18846,-82.20573 -84.91006,-84.82616 -0.70526,-1.07347 -1.50986,-2.62402 -1.78799,-3.44566 -0.71605,-2.11528 -0.85895,-5.91125 -0.30494,-8.10066 z"
   id="path11" /><path
   style="fill:#ffffff;stroke-width:0.300273"
   d="m 110.58095,161.2199 c 0.29547,-1.08941 1.10228,-2.84352 1.79546,-3.90355 0.89455,-1.36797 13.23158,-13.88701 42.63048,-43.2594 32.62364,-32.59421 41.6891,-41.491951 42.873,-42.0798 2.43367,-1.208398 4.57617,-1.713274 7.27053,-1.713274 4.30494,0 7.63611,1.497524 10.70523,4.812539 4.31803,4.663993 5.20053,10.722166 2.40456,16.506843 -1.0585,2.189967 -2.06818,3.232948 -36.62673,37.834682 l -35.53821,35.58264 35.5354,35.58206 c 33.77419,33.81852 35.588,35.68891 36.59641,37.73808 2.81676,5.72387 1.92967,11.95716 -2.36128,16.5919 -3.10719,3.35613 -6.38027,4.82627 -10.73104,4.81994 -1.34778,-0.002 -3.12611,-0.18431 -3.95186,-0.40521 -3.8962,-1.04233 -2.17651,0.57223 -46.0503,-43.23499 -29.47107,-29.42635 -41.61187,-41.74054 -42.52779,-43.13513 -0.70502,-1.07347 -1.50943,-2.62402 -1.78756,-3.44566 -0.77326,-2.28426 -0.87712,-5.92897 -0.2363,-8.29167 z"
   id="path12" /><path
   style="fill:#ffffff;stroke-width:0.300273"
   d="m 110.52843,161.4281 c 0.92906,-3.83952 -0.30795,-2.52219 44.07706,-46.93874 l 41.77303,-41.802723 2.40219,-1.111559 c 2.17727,-1.007482 2.69738,-1.123914 5.55505,-1.243543 2.67657,-0.112048 3.44772,-0.03288 5.10464,0.524085 2.58985,0.870552 4.44125,2.088653 6.41525,4.220795 4.31804,4.66401 5.20054,10.722216 2.40454,16.506843 -1.05844,2.189794 -2.06691,3.231661 -36.48282,37.690802 -19.46687,19.49133 -35.3943,35.568 -35.3943,35.72594 0,0.15794 15.92612,16.23461 35.39138,35.72594 33.63274,33.67777 35.4441,35.54589 36.4525,37.59478 2.80618,5.70167 1.94004,11.9461 -2.29087,16.51599 -3.18025,3.43505 -6.41717,4.90223 -10.80132,4.89585 -1.34778,-0.002 -3.12611,-0.18431 -3.95186,-0.40521 -3.90876,-1.04568 -2.09849,0.65903 -46.70766,-43.98432 -38.80777,-38.83749 -41.97226,-42.07957 -42.83692,-43.88716 -1.56337,-3.26823 -1.93438,-6.62037 -1.10989,-10.02777 z"
   id="path13" /><path
   style="fill:#ffffff;stroke-width:0.300273"
   d="m 110.50922,161.4281 c 0.97789,-3.86783 -0.24752,-2.56344 44.09627,-46.93874 l 41.77303,-41.802723 2.40219,-1.111559 c 2.17727,-1.007482 2.69738,-1.123914 5.55505,-1.243543 2.67657,-0.112048 3.44772,-0.03288 5.10464,0.524085 2.58985,0.870552 4.44125,2.088653 6.41525,4.220795 4.31804,4.66401 5.20054,10.722216 2.40454,16.506843 -1.05844,2.189794 -2.06691,3.231661 -36.48282,37.690802 -19.46687,19.49133 -35.3943,35.568 -35.3943,35.72594 0,0.15794 15.92743,16.23461 35.3943,35.72594 34.44155,34.48482 35.42353,35.49937 36.48052,37.6908 2.79797,5.80096 1.89687,12.02481 -2.39199,16.52122 -3.23105,3.38743 -6.39467,4.80091 -10.73114,4.7946 -1.34778,-0.002 -3.12611,-0.18431 -3.95186,-0.40521 -3.89766,-1.04271 -2.163,0.58684 -46.18338,-43.38512 -27.11569,-27.08586 -41.7897,-41.95452 -42.57046,-43.13513 -0.65529,-0.9909 -1.40127,-2.47725 -1.65774,-3.303 -0.67614,-2.17699 -0.7987,-5.95353 -0.2621,-8.076 z"
   id="path14" /><path
   style="fill:#ffffff;stroke-width:0.300273"
   d="m 110.35959,161.84713 c 0.15496,-0.74317 0.7133,-2.22952 1.24076,-3.303 0.87771,-1.78627 4.51039,-5.50797 42.83907,-43.88893 l 41.88003,-41.937171 2.4119,-1.131834 c 2.20957,-1.036889 2.67805,-1.142522 5.58459,-1.259239 2.68943,-0.108001 3.46998,-0.02747 5.12446,0.528664 6.93829,2.332234 11.41495,9.438305 10.26776,16.298609 -0.20811,1.244496 -0.82939,3.141621 -1.45044,4.429029 -1.05535,2.187682 -2.06161,3.230407 -35.20737,36.483162 -18.76653,18.82712 -34.72058,34.87148 -35.45343,35.65415 l -1.33246,1.42303 35.45128,35.51054 c 34.46443,34.52206 35.48158,35.57325 36.53982,37.7626 0.6245,1.29198 1.24375,3.18012 1.4526,4.42903 0.9382,5.61055 -1.81211,11.39937 -7.03116,14.7991 -2.49849,1.62753 -4.93841,2.20527 -8.57404,2.0302 -2.53191,-0.12192 -3.28752,-0.28841 -5.19357,-1.14435 -2.21745,-0.99578 -2.47521,-1.24589 -43.76017,-42.46183 -27.27675,-27.23116 -41.93832,-42.07847 -42.72058,-43.26179 -0.65506,-0.9909 -1.40085,-2.47725 -1.65732,-3.303 -0.57502,-1.85142 -0.78971,-5.84406 -0.41173,-7.65697 z"
   id="path15" /><path
   style="fill:#000000;stroke-width:0.300273"
   d="M 0.61225725,11.492801 C 1.1789003,9.388995 2.5585354,6.7339169 3.8815095,5.2012306 5.41365,3.426205 8.2748325,1.6084815 10.773795,0.82254014 L 12.911737,0.15013649 H 165 317.08826 l 2.13796,0.67240365 c 3.91986,1.23282906 7.06798,3.84947116 8.85231,7.35782536 1.92299,3.7810035 1.77133,-9.6455802 1.77133,156.8196345 0,166.46521 0.15166,153.03863 -1.77133,156.81963 -1.78433,3.50836 -4.93245,6.125 -8.85231,7.35783 l -2.13796,0.6724 H 165 12.911737 l -2.137942,-0.6724 C 5.661678,327.56965 1.9712303,323.65349 0.59727113,318.37848 -0.05972587,315.85609 -0.044979,13.933015 0.61224488,11.492801 Z M 110.67122,169.79933 c 0.3071,0.99367 0.97947,2.48229 1.49415,3.30804 0.56693,0.90957 17.28935,17.84268 42.42434,42.95883 37.23879,37.2109 41.67309,41.5448 43.29018,42.30996 2.58475,1.22303 4.46471,1.65261 7.24999,1.65667 10.9847,0.016 18.13033,-11.29901 13.5532,-21.46132 -0.92172,-2.04644 -1.96395,-3.12431 -36.52949,-37.77848 l -35.5807,-35.67194 3.13193,-3.21341 c 1.72256,-1.76738 17.73631,-17.87424 35.58611,-35.79303 31.51813,-31.639928 32.4814,-32.640376 33.39757,-34.686158 4.56045,-10.183412 -2.58428,-21.490487 -13.55862,-21.457548 -3.0015,0.009 -4.573,0.354886 -7.09985,1.562611 -1.80859,0.864431 -5.00532,3.985662 -43.57466,42.545425 -32.1901,32.18212 -41.83019,41.98683 -42.53766,43.26406 -0.88828,1.60365 -1.70092,4.01694 -1.97168,5.85532 -0.21929,1.48889 0.13118,4.67899 0.72519,6.60097 z"
   id="path16" /><path
   style="fill:#0b5917;stroke-width:0.300273;fill-opacity:1"
   d="m 110.4572,161.64756 c 1.05999,-4.14979 -1.08407,-1.86011 44.01458,-47.00372 41.88906,-41.930815 41.90774,-41.948986 44.27089,-43.065025 2.13578,-1.008666 2.66229,-1.129767 5.45094,-1.25379 3.56876,-0.158721 6.21593,0.469731 8.54979,2.02976 6.56093,4.385535 8.90466,12.11369 5.71755,18.852847 -1.12593,2.38078 -2.21288,3.510746 -36.46717,37.910508 -15.87001,15.93741 -30.40725,30.56544 -32.30498,32.50674 l -3.45043,3.52963 31.69466,31.75168 c 38.76571,38.83547 39.40847,39.50097 40.59035,42.02659 3.12939,6.68735 0.70596,14.44384 -5.84638,18.71209 -2.49849,1.62753 -4.93841,2.20527 -8.57404,2.0302 -2.53406,-0.12202 -3.28589,-0.28791 -5.19357,-1.14594 -2.2164,-0.99688 -2.4948,-1.26701 -43.76102,-42.46183 -27.32057,-27.27329 -41.93765,-42.075 -42.72059,-43.2602 -0.65458,-0.9909 -1.39578,-2.47725 -1.64709,-3.303 -0.64369,-2.11496 -0.80283,-5.97997 -0.32349,-7.85654 z"
   id="path17" /><path
   style="fill:#ffffff;stroke-width:0.300273"
   d="M 0.4191825,57.051864 0.6105165,11.56051 1.4007139,9.7072717 C 3.298647,5.2560358 6.0098115,2.7609577 10.862647,0.999471 l 1.92628,-0.69919802 H 164.96665 c 147.80713,0 152.22455,0.0161084 153.80792,0.56086759 4.07452,1.40183833 6.65779,3.33977633 8.64387,6.48451713 0.67128,1.0628863 1.37003,2.5136063 1.55278,3.2238223 0.533,2.071336 0.82744,57.024993 0.82744,154.43052 0,97.40553 -0.29444,152.3592 -0.82744,154.43051 -0.18275,0.71024 -0.8815,2.16095 -1.55278,3.22382 -1.98608,3.14476 -4.56935,5.08269 -8.64387,6.48452 -1.58337,0.54478 -6.00069,0.56088 -153.80368,0.56088 H 12.797396 L 10.60252,328.91118 C 6.4604636,327.42309 3.7326919,325.04697 1.8722921,321.30641 0.97141275,319.49504 0.89571487,319.09451 0.70894312,315.15081 0.4178295,309.00404 0.19487737,110.38904 0.4191825,57.051864 Z M 110.19504,168.2534 c 0.98575,4.6524 -1.68795,1.74977 40.92722,44.43148 21.42279,21.45624 40.48152,40.41774 42.35272,42.13668 4.79279,4.40277 6.61674,5.20993 11.7616,5.20494 2.21562,-0.002 3.29556,-0.15914 4.83637,-0.70306 8.50901,-3.00377 12.53687,-12.77855 8.61494,-20.9067 -1.04008,-2.15555 -4.53306,-5.74231 -50.20802,-51.55608 l -21.61324,-21.67893 1.6069,-1.74237 c 0.88379,-0.9583 13.44808,-13.63317 27.92065,-28.16638 39.34353,-39.508403 41.18335,-41.40955 42.29784,-43.707897 3.92893,-8.102358 -0.10707,-17.883698 -8.61907,-20.888521 -1.59521,-0.563124 -2.60134,-0.700293 -5.13664,-0.700293 -3.88324,0 -6.40454,0.779514 -8.78084,2.714782 -1.99005,1.620696 -74.12952,73.578769 -80.00093,79.799769 -2.91697,3.09064 -4.54553,5.06675 -4.94928,6.00546 -1.4783,3.43711 -1.76421,6.19852 -1.01022,9.75712 z"
   id="path18" /></svg>
