<?xml version="1.0" encoding="UTF-8" standalone="no"?>
<!-- Uploaded to: SVG Repo, www.svgrepo.com, Generator: SVG Repo Mixer Tools -->

<svg
   fill="#000000"
   height="800px"
   width="800px"
   version="1.1"
   id="Layer_1"
   viewBox="0 0 330 330"
   xml:space="preserve"
   sodipodi:docname="left_arrow.svg"
   inkscape:version="1.3.2 (091e20e, 2023-11-25, custom)"
   xmlns:inkscape="http://www.inkscape.org/namespaces/inkscape"
   xmlns:sodipodi="http://sodipodi.sourceforge.net/DTD/sodipodi-0.dtd"
   xmlns="http://www.w3.org/2000/svg"
   xmlns:svg="http://www.w3.org/2000/svg"><defs
   id="defs1" /><sodipodi:namedview
   id="namedview1"
   pagecolor="#ffffff"
   bordercolor="#000000"
   borderopacity="0.25"
   inkscape:showpageshadow="2"
   inkscape:pageopacity="0.0"
   inkscape:pagecheckerboard="0"
   inkscape:deskcolor="#d1d1d1"
   inkscape:zoom="0.97138794"
   inkscape:cx="322.73409"
   inkscape:cy="327.88136"
   inkscape:window-width="2560"
   inkscape:window-height="1334"
   inkscape:window-x="-11"
   inkscape:window-y="-11"
   inkscape:window-maximized="1"
   inkscape:current-layer="Layer_1"
   inkscape:rotation="90" />
<path
   id="XMLID_24_"
   d="M 330,315 V 15 C 330,6.716 323.284,0 315,0 H 15 C 6.716,0 0,6.716 0,15 v 300 c 0,8.284 6.716,15 15,15 h 300 c 8.284,0 15,-6.716 15,-15 z m -135.606,-59.394 -80,-79.998 C 111.581,172.795 110,168.98 110,165.002 c 0,-3.979 1.58,-7.793 4.394,-10.607 l 80,-80.002 c 5.857,-5.858 15.355,-5.858 21.213,0 5.858,5.857 5.858,15.355 0,21.213 l -69.393,69.396 69.393,69.392 c 5.858,5.857 5.858,15.355 0,21.213 -5.858,5.858 -15.356,5.858 -21.213,-0.001 z"
   style="fill:#0b5917;fill-opacity:1" />
<path
   style="fill:#ffffff;stroke-width:0.300273"
   d="m 110.38614,162.44768 c 0.14624,-0.90832 0.75416,-2.66492 1.35092,-3.90355 1.05849,-2.19694 2.0926,-3.26127 42.2627,-43.4978 26.9177,-26.9622 41.79409,-41.65171 42.95765,-42.41799 5.93726,-3.91008 13.85706,-2.93441 18.76451,2.31167 2.09471,2.23926 3.23346,4.50806 3.86073,7.69201 0.41986,2.13115 0.41765,2.57051 -0.0242,4.81312 -1.03809,5.26918 1.51065,2.44978 -37.94624,41.97602 l -35.52341,35.58585 34.54673,34.52789 c 19.0007,18.99033 35.21438,35.40618 36.03039,36.47966 2.68586,3.53332 3.69265,7.58118 2.87853,11.57335 -0.63759,3.12654 -1.70015,5.20321 -3.824,7.47361 -4.91353,5.25257 -12.9302,6.22781 -18.78644,2.28539 -1.07732,-0.72526 -17.68021,-17.12571 -42.93428,-42.41077 -40.25081,-40.30022 -41.20197,-41.27892 -42.25707,-43.48027 -0.59367,-1.23863 -1.21637,-3.13035 -1.38376,-4.20382 -0.34419,-2.20719 -0.34248,-2.50818 0.0272,-4.80437 z"
   id="path1" /><path
   style="fill:#ffffff;stroke-width:0.300273"
   d="m 110.38614,162.44768 c 0.14624,-0.90832 0.75416,-2.66492 1.35092,-3.90355 1.05849,-2.19694 2.0926,-3.26127 42.2627,-43.4978 26.9177,-26.9622 41.79409,-41.65171 42.95765,-42.41799 5.93645,-3.90954 13.85713,-2.93434 18.76308,2.31014 4.65766,4.97906 5.39601,11.6988 1.95102,17.75628 -0.54628,0.96054 -12.61352,13.25256 -36.20163,36.87596 l -35.3822,35.43513 34.54731,34.52847 c 19.00102,18.99066 35.21496,35.40676 36.03097,36.48024 2.70576,3.5595 3.69729,7.55847 2.87447,11.59326 -0.63358,3.10688 -1.6997,5.18714 -3.81994,7.4537 -4.91353,5.25257 -12.9302,6.22781 -18.78644,2.28539 -1.07733,-0.72526 -17.68022,-17.12571 -42.93429,-42.41077 -40.2508,-40.30022 -41.20196,-41.27892 -42.25707,-43.48027 -0.59367,-1.23863 -1.21636,-3.13035 -1.38375,-4.20382 -0.34419,-2.20719 -0.34248,-2.50818 0.0272,-4.80437 z"
   id="path2" /><path
   style="fill:#ffffff;stroke-width:0.300273"
   d="m 110.50469,161.926 c 0.95734,-4.40648 -1.28985,-1.98536 43.51197,-46.87967 26.9342,-26.98981 41.77599,-41.65092 42.94075,-42.41799 5.93645,-3.90954 13.85713,-2.93434 18.76308,2.31014 4.37105,4.67267 5.30993,10.87334 2.51953,16.63978 -1.06229,2.19525 -2.06493,3.23132 -36.61906,37.84027 l -35.52686,35.58322 35.37911,35.43134 c 23.59134,23.62616 35.65209,35.91139 36.19842,36.87215 1.95962,3.44619 2.57796,6.92632 1.85012,10.41287 -0.63317,3.03307 -1.70366,5.10106 -3.80126,7.34341 -4.92671,5.26667 -12.91449,6.23839 -18.78644,2.28539 -1.07733,-0.72526 -17.68022,-17.12571 -42.93429,-42.41077 -40.2508,-40.30022 -41.20196,-41.27892 -42.25707,-43.48027 -0.99442,-2.07476 -1.71912,-5.07801 -1.6665,-6.90628 0.0119,-0.41287 0.20471,-1.59349 0.4285,-2.62359 z"
   id="path3" /><path
   style="fill:#ffffff;stroke-width:0.300273"
   d="m 110.50469,161.926 c 0.95734,-4.40648 -1.28985,-1.98536 43.51197,-46.87967 26.9342,-26.98981 41.77599,-41.65092 42.94075,-42.41799 5.93645,-3.90954 13.85713,-2.93434 18.76308,2.31014 2.12036,2.26667 3.18636,4.34683 3.82007,7.45432 0.6319,3.09865 0.22667,5.99574 -1.28306,9.17296 -1.05775,2.22601 -1.7602,2.95209 -36.62033,37.85218 l -35.5419,35.58264 35.54201,35.58206 c 34.86175,34.90103 35.56264,35.62549 36.62033,37.8516 2.77529,5.84115 1.82642,11.96264 -2.58532,16.67881 -1.36487,1.45904 -2.41691,2.23299 -4.31134,3.17172 -2.30934,1.14433 -2.73961,1.25298 -5.48526,1.3852 -3.6355,0.17506 -6.23055,-0.49808 -8.93266,-2.31707 -1.0905,-0.73409 -17.50402,-16.95276 -42.92637,-42.41676 -44.97417,-45.04787 -42.55843,-42.43914 -43.52543,-47.00253 -0.52089,-2.45815 -0.51842,-3.55943 0.0135,-6.00761 z"
   id="path4" /><path
   style="fill:#ffffff;stroke-width:0.300273"
   d="m 110.50469,161.926 c 0.95734,-4.40648 -1.28985,-1.98536 43.51197,-46.87967 26.9342,-26.98981 41.77599,-41.65092 42.94075,-42.41799 5.64884,-3.72013 13.15475,-3.05277 18.08255,1.60774 4.95433,4.6856 6.14928,11.14786 3.20771,17.34718 -1.04581,2.204 -1.82684,3.01115 -36.6105,37.83468 l -35.5419,35.58264 35.54201,35.58206 c 34.86175,34.90103 35.56264,35.62549 36.62033,37.8516 2.77529,5.84115 1.82642,11.96264 -2.58532,16.67881 -1.36487,1.45904 -2.41691,2.23299 -4.31134,3.17172 -2.30934,1.14433 -2.73961,1.25298 -5.48526,1.3852 -3.6355,0.17506 -6.23055,-0.49808 -8.93266,-2.31707 -1.0905,-0.73409 -17.50402,-16.95276 -42.92637,-42.41676 -44.97417,-45.04787 -42.55843,-42.43914 -43.52543,-47.00253 -0.52089,-2.45815 -0.51842,-3.55943 0.0135,-6.00761 z"
   id="path5" /><path
   style="fill:#ffffff;stroke-width:0.300273"
   d="m 110.52642,161.73726 c 1.04151,-4.30292 -1.03262,-2.07614 43.49024,-46.69093 26.9342,-26.98981 41.77599,-41.65092 42.94075,-42.41799 2.43072,-1.60079 5.04849,-2.36525 8.08559,-2.36121 3.90329,0.005 7.18146,1.30617 9.99417,3.96631 4.98136,4.71116 6.16055,11.0934 3.20557,17.34982 -1.04257,2.20737 -1.76869,2.95787 -36.60557,37.83468 l -35.5419,35.58264 35.54201,35.58206 c 35.00965,35.0491 35.55837,35.61648 36.63416,37.88035 2.78942,5.87 1.84499,11.89925 -2.60988,16.66152 -1.35366,1.44706 -2.41051,2.22368 -4.30061,3.16026 -2.30934,1.14433 -2.73961,1.25298 -5.48526,1.3852 -3.6355,0.17506 -6.23055,-0.49808 -8.93266,-2.31707 -1.0905,-0.73409 -17.50402,-16.95276 -42.92637,-42.41676 -44.97417,-45.04787 -42.55843,-42.43914 -43.52543,-47.00253 -0.52723,-2.48804 -0.51918,-3.90606 0.0352,-6.19635 z"
   id="path6" /><path
   style="fill:#ffffff;stroke-width:0.300273"
   d="m 110.52642,161.73726 c 1.04151,-4.30292 -1.03262,-2.07614 43.49024,-46.69093 27.07789,-27.1338 41.77293,-41.64886 42.94995,-42.42393 2.70623,-1.78206 5.26508,-2.45258 8.81545,-2.30998 2.60745,0.10473 3.16003,0.23361 5.24293,1.22277 6.42845,3.05286 9.91732,9.76063 8.51661,16.3742 -0.99548,4.70023 0.99962,2.51661 -37.92507,41.50855 l -35.52126,35.58264 35.52137,35.58206 c 38.92531,38.99179 36.92939,36.80731 37.92496,41.50797 1.40071,6.61357 -2.08816,13.32134 -8.51661,16.3742 -2.0829,0.98916 -2.63548,1.11804 -5.24293,1.22277 -3.56863,0.14333 -6.18422,-0.54753 -8.83903,-2.33468 -1.0905,-0.73409 -17.50402,-16.95276 -42.92637,-42.41676 -44.70399,-44.77724 -42.45419,-42.35643 -43.50426,-46.81122 -0.55176,-2.34079 -0.54798,-4.06582 0.014,-6.38766 z"
   id="path7" /><path
   style="fill:#ffffff;stroke-width:0.300273"
   d="m 110.46154,161.84713 c 0.92492,-4.22936 -1.10075,-2.05274 43.55512,-46.8008 27.07789,-27.1338 41.77293,-41.64886 42.94995,-42.42393 2.71688,-1.78908 5.26199,-2.45271 8.85328,-2.30846 2.74915,0.11042 3.12788,0.20551 5.49972,1.3808 7.64668,3.78908 10.63003,12.42059 6.90736,19.98454 -1.00846,2.04906 -2.82411,3.92137 -36.59641,37.73866 l -35.53529,35.58264 35.52137,35.58206 c 38.92531,38.99179 36.92939,36.80731 37.92496,41.50797 1.2608,5.95298 -1.57812,12.29959 -6.99977,15.64845 -4.5873,2.8335 -11.05775,2.67093 -15.60778,-0.39215 -1.07864,-0.72615 -17.64288,-17.09486 -42.91739,-42.41077 -44.70399,-44.77724 -42.45419,-42.35643 -43.50426,-46.81122 -0.53349,-2.26325 -0.54761,-4.00631 -0.0509,-6.27779 z"
   id="path8" /><path
   style="fill:#ffffff;stroke-width:0.300273"
   d="m 110.37921,162.14741 c 0.88295,-4.53011 -0.31586,-3.2379 44.75383,-48.24059 32.50238,-32.45407 41.56374,-41.3422 42.74685,-41.92966 2.43365,-1.2084 4.57617,-1.71328 7.27053,-1.71328 4.31354,0 7.63542,1.49677 10.72276,4.83148 4.26645,4.60827 5.1576,10.88697 2.35379,16.58392 -1.00846,2.04906 -2.82411,3.92137 -36.59641,37.73866 l -35.53529,35.58264 35.52137,35.58206 c 38.92531,38.99179 36.92939,36.80731 37.92496,41.50797 0.76773,3.62494 0.0298,7.58565 -2.00367,10.75457 -1.02293,1.5941 -3.51504,4.03983 -5.0948,5 -4.47405,2.71929 -11.04308,2.50824 -15.50908,-0.49827 -1.07864,-0.72615 -17.64288,-17.09486 -42.91739,-42.41077 -44.70399,-44.77724 -42.45419,-42.35643 -43.50426,-46.81122 -0.49733,-2.10986 -0.53731,-3.90413 -0.13319,-5.97751 z"
   id="path9" /><path
   style="fill:#ffffff;stroke-width:0.300273"
   d="m 110.51141,161.59278 c 0.87815,-4.04621 -0.18441,-2.91087 44.48844,-47.53583 32.62352,-32.58855 41.69634,-41.49205 42.88004,-42.0798 2.43367,-1.2084 4.57617,-1.71327 7.27053,-1.71327 4.30992,0 7.63571,1.49709 10.71538,4.8235 4.29101,4.63481 5.17809,10.8683 2.36117,16.5919 -1.00846,2.04906 -2.82411,3.92137 -36.59641,37.73866 l -35.53529,35.58264 35.52137,35.58206 c 38.92531,38.99179 36.92939,36.80731 37.92496,41.50797 0.76773,3.62494 0.0298,7.58565 -2.00367,10.75457 -1.02293,1.5941 -3.51504,4.03983 -5.0948,5 -4.47405,2.71929 -11.04308,2.50824 -15.50908,-0.49827 -1.07864,-0.72615 -17.64288,-17.09486 -42.91739,-42.41077 -44.70399,-44.77724 -42.45419,-42.35643 -43.50426,-46.81122 -0.54854,-2.3271 -0.54879,-4.00803 -8.2e-4,-6.53214 z"
   id="path10" /><path
   style="fill:#ffffff;stroke-width:0.300273"
   d="m 110.51231,161.41091 c 1.00332,-3.96513 0.25879,-3.17263 44.48754,-47.35396 32.62352,-32.58855 41.69634,-41.49205 42.88004,-42.0798 2.43367,-1.2084 4.57617,-1.71327 7.27053,-1.71327 4.30494,0 7.63611,1.49752 10.70523,4.81253 4.31803,4.664 5.20053,10.72217 2.40456,16.50685 -1.0585,2.18996 -2.06818,3.23295 -36.62672,37.83468 l -35.53822,35.58264 35.5354,35.58206 c 33.77419,33.81852 35.588,35.68891 36.59641,37.73808 2.81676,5.72387 1.92967,11.95716 -2.36128,16.5919 -3.11746,3.36723 -6.37188,4.8235 -10.77936,4.8235 -2.79445,0 -5.27291,-0.63924 -7.57114,-1.95273 -2.10658,-1.20396 -83.18846,-82.20573 -84.91006,-84.82616 -0.70526,-1.07347 -1.50986,-2.62402 -1.78799,-3.44566 -0.71605,-2.11528 -0.85895,-5.91125 -0.30494,-8.10066 z"
   id="path11" /><path
   style="fill:#ffffff;stroke-width:0.300273"
   d="m 110.58095,161.2199 c 0.29547,-1.08941 1.10228,-2.84352 1.79546,-3.90355 0.89455,-1.36797 13.23158,-13.88701 42.63048,-43.2594 32.62364,-32.59421 41.6891,-41.49195 42.873,-42.0798 2.43367,-1.2084 4.57617,-1.71327 7.27053,-1.71327 4.30494,0 7.63611,1.49752 10.70523,4.81253 4.31803,4.664 5.20053,10.72217 2.40456,16.50685 -1.0585,2.18996 -2.06818,3.23295 -36.62672,37.83468 l -35.53822,35.58264 35.5354,35.58206 c 33.77419,33.81852 35.588,35.68891 36.59641,37.73808 2.81676,5.72387 1.92967,11.95716 -2.36128,16.5919 -3.10719,3.35613 -6.38027,4.82627 -10.73104,4.81994 -1.34778,-0.002 -3.12611,-0.18431 -3.95186,-0.40521 -3.89619,-1.04233 -2.17651,0.57223 -46.0503,-43.23499 -29.47107,-29.42635 -41.61187,-41.74054 -42.52779,-43.13513 -0.70502,-1.07347 -1.50943,-2.62402 -1.78756,-3.44566 -0.77326,-2.28426 -0.87712,-5.92897 -0.2363,-8.29167 z"
   id="path12" /><path
   style="fill:#ffffff;stroke-width:0.300273"
   d="m 110.52843,161.4281 c 0.92906,-3.83952 -0.30795,-2.52219 44.07706,-46.93874 l 41.77303,-41.80272 2.40219,-1.11156 c 2.17727,-1.00748 2.69738,-1.12392 5.55505,-1.24355 2.67657,-0.11204 3.44772,-0.0329 5.10464,0.52409 2.58985,0.87055 4.44125,2.08865 6.41525,4.22079 4.31804,4.66401 5.20054,10.72222 2.40454,16.50685 -1.05844,2.18979 -2.06691,3.23166 -36.48282,37.6908 -19.46687,19.49133 -35.3943,35.568 -35.3943,35.72594 0,0.15794 15.92612,16.23461 35.39138,35.72594 33.63274,33.67777 35.4441,35.54589 36.4525,37.59478 2.80618,5.70167 1.94004,11.9461 -2.29087,16.51599 -3.18025,3.43505 -6.41717,4.90223 -10.80132,4.89585 -1.34778,-0.002 -3.12611,-0.1843 -3.95186,-0.40521 -3.90876,-1.04568 -2.09849,0.65903 -46.70766,-43.98432 -38.80776,-38.83749 -41.97226,-42.07957 -42.83692,-43.88716 -1.56337,-3.26823 -1.93438,-6.62037 -1.10989,-10.02777 z"
   id="path13" /><path
   style="fill:#ffffff;stroke-width:0.300273"
   d="m 110.50922,161.4281 c 0.97789,-3.86783 -0.24752,-2.56344 44.09627,-46.93874 l 41.77303,-41.80272 2.40219,-1.11156 c 2.17727,-1.00748 2.69738,-1.12392 5.55505,-1.24355 2.67657,-0.11204 3.44772,-0.0329 5.10464,0.52409 2.58985,0.87055 4.44125,2.08865 6.41525,4.22079 4.31804,4.66401 5.20054,10.72222 2.40454,16.50685 -1.05844,2.18979 -2.06691,3.23166 -36.48282,37.6908 -19.46687,19.49133 -35.3943,35.568 -35.3943,35.72594 0,0.15794 15.92743,16.23461 35.3943,35.72594 34.44155,34.48482 35.42353,35.49938 36.48052,37.6908 2.79797,5.80096 1.89687,12.02481 -2.39199,16.52122 -3.23105,3.38743 -6.39467,4.80091 -10.73114,4.7946 -1.34778,-0.002 -3.12611,-0.18431 -3.95186,-0.40521 -3.89766,-1.04272 -2.163,0.58684 -46.18338,-43.38512 -27.11569,-27.08586 -41.7897,-41.95452 -42.57046,-43.13513 -0.65529,-0.9909 -1.40127,-2.47725 -1.65774,-3.303 -0.67614,-2.17699 -0.7987,-5.95353 -0.2621,-8.076 z"
   id="path14" /><path
   style="fill:#ffffff;stroke-width:0.300273"
   d="m 110.35959,161.84713 c 0.15496,-0.74317 0.7133,-2.22952 1.24076,-3.303 0.87771,-1.78627 4.51039,-5.50797 42.83907,-43.88893 l 41.88003,-41.93717 2.4119,-1.13184 c 2.20957,-1.03688 2.67805,-1.14252 5.58459,-1.25923 2.68943,-0.108 3.46998,-0.0275 5.12446,0.52866 6.93829,2.33223 11.41495,9.43831 10.26776,16.29861 -0.20811,1.2445 -0.82939,3.14162 -1.45044,4.42903 -1.05535,2.18768 -2.06161,3.23041 -35.20737,36.48316 -18.76653,18.82712 -34.72058,34.87148 -35.45343,35.65415 l -1.33246,1.42303 35.45128,35.51054 c 34.46443,34.52206 35.48158,35.57325 36.53982,37.7626 0.6245,1.29198 1.24375,3.18012 1.4526,4.42903 0.9382,5.61055 -1.81211,11.39937 -7.03116,14.7991 -2.49849,1.62753 -4.93841,2.20527 -8.57404,2.0302 -2.53191,-0.12192 -3.28752,-0.28841 -5.19357,-1.14435 -2.21745,-0.99578 -2.47521,-1.24589 -43.76017,-42.46183 -27.27675,-27.23116 -41.93832,-42.07847 -42.72058,-43.26179 -0.65506,-0.9909 -1.40085,-2.47725 -1.65732,-3.303 -0.57502,-1.85142 -0.78971,-5.84406 -0.41173,-7.65697 z"
   id="path15" /></svg>
