<?xml version="1.0" standalone="no"?>
<!DOCTYPE svg PUBLIC "-//W3C//DTD SVG 20010904//EN"
 "http://www.w3.org/TR/2001/REC-SVG-20010904/DTD/svg10.dtd">
<svg version="1.0" xmlns="http://www.w3.org/2000/svg"
 width="500.000000pt" height="500.000000pt" viewBox="0 0 500.000000 500.000000"
 preserveAspectRatio="xMidYMid meet">

<g transform="translate(0.000000,500.000000) scale(0.100000,-0.100000)"
fill="#000000" stroke="none">
<path d="M2305 4990 c-685 -58 -1309 -387 -1739 -915 -141 -173 -216 -291
-320 -505 -107 -220 -185 -485 -227 -770 -18 -120 -15 -456 5 -610 62 -466
245 -898 533 -1255 227 -281 517 -513 838 -671 356 -174 699 -256 1070 -257
492 -1 893 108 1325 361 367 215 709 576 919 972 459 867 357 1939 -258 2715
-80 101 -251 275 -361 367 -339 284 -785 483 -1229 548 -155 23 -416 32 -556
20z m550 -129 c758 -116 1418 -591 1763 -1269 182 -356 265 -703 265 -1107 0
-365 -78 -696 -242 -1030 -191 -388 -463 -699 -815 -935 -716 -479 -1623 -537
-2391 -153 -680 340 -1158 983 -1285 1728 -77 452 -27 910 145 1320 124 297
283 532 515 766 413 414 914 646 1520 703 101 9 399 -4 525 -23z"/>
<path d="M2157 4266 c-21 -8 -56 -26 -78 -40 -44 -29 -43 -40 4 -85 l26 -23
29 21 c72 51 162 49 183 -6 24 -63 -11 -120 -170 -278 -110 -109 -111 -110
-111 -157 l0 -48 215 0 215 0 0 55 0 55 -135 0 c-74 0 -135 2 -135 5 0 3 45
49 100 101 121 117 155 175 148 258 -5 66 -33 107 -91 135 -51 25 -141 27
-200 7z"/>
<path d="M2655 4273 c-27 -7 -115 -44 -115 -49 0 -6 52 -84 55 -84 2 0 22 9
46 20 49 22 109 26 142 9 30 -16 37 -28 37 -66 0 -55 -45 -83 -136 -83 l-54 0
0 -50 0 -50 65 0 c100 0 135 -24 135 -91 0 -83 -127 -111 -264 -59 l-26 10 0
-54 0 -54 46 -11 c67 -17 201 -15 254 4 79 28 120 84 120 165 0 75 -30 110
-114 135 l-39 12 46 22 c60 29 87 72 87 141 0 46 -4 56 -33 85 -18 18 -51 38
-72 44 -40 11 -142 13 -180 4z"/>
<path d="M845 2763 c-72 -19 -115 -98 -95 -171 12 -46 36 -70 115 -114 41 -23
60 -40 60 -53 0 -35 -66 -31 -167 10 -16 6 -18 0 -18 -54 0 -62 0 -62 37 -77
26 -11 60 -15 113 -12 65 2 82 7 113 31 46 35 63 86 48 143 -13 48 -36 71
-116 116 -33 19 -61 41 -63 51 -5 25 40 32 95 13 26 -9 50 -13 53 -9 4 5 14
27 24 51 l16 43 -37 16 c-39 16 -143 26 -178 16z m128 -38 c29 -5 37 -10 35
-23 -3 -14 -13 -16 -57 -14 -72 5 -100 -4 -112 -35 -14 -37 8 -65 81 -104 75
-40 100 -70 100 -119 0 -85 -92 -130 -203 -99 -35 9 -57 32 -44 45 3 3 29 1
59 -5 67 -14 109 -3 126 33 19 38 -3 68 -77 106 -72 36 -101 70 -101 120 0 51
30 87 83 98 23 5 49 8 57 7 8 -2 32 -6 53 -10z"/>
<path d="M1217 2756 c-87 -32 -131 -108 -130 -226 0 -158 76 -240 223 -240
152 0 227 90 219 261 -5 90 -30 143 -87 183 -34 24 -53 30 -114 33 -47 2 -87
-2 -111 -11z m193 -44 c55 -27 85 -90 85 -182 0 -119 -49 -189 -145 -205 -131
-22 -230 62 -230 195 0 117 40 182 125 206 57 15 114 10 165 -14z"/>
<path d="M1231 2664 c-37 -31 -55 -90 -48 -159 10 -100 46 -137 130 -137 45 0
55 4 82 34 59 64 55 211 -7 263 -42 35 -114 35 -157 -1z m136 -28 c26 -23 28
-29 28 -106 0 -77 -2 -83 -28 -106 -17 -15 -40 -24 -60 -24 -62 1 -87 40 -87
135 0 60 3 69 29 96 37 36 79 38 118 5z"/>
<path d="M2528 2762 l-178 -2 0 -55 0 -55 60 0 60 0 0 -180 0 -180 65 0 65 0
0 180 0 180 60 0 c46 0 60 3 60 15 0 12 4 13 25 3 25 -11 25 -12 25 -139 l0
-128 -30 -16 c-26 -13 -30 -21 -30 -55 l0 -40 120 0 120 0 0 44 c0 40 -3 45
-30 55 l-30 10 0 129 0 130 30 12 c26 11 30 18 30 51 l0 38 -122 3 c-68 2
-203 2 -300 0z m152 -52 c0 -18 -7 -20 -55 -20 l-55 0 0 -180 0 -180 -30 0
-30 0 0 180 0 180 -60 0 c-53 0 -60 2 -60 20 0 19 7 20 145 20 138 0 145 -1
145 -20z m230 7 c0 -8 -11 -19 -25 -25 l-25 -12 0 -153 0 -154 25 -11 c46 -21
27 -32 -55 -32 -82 0 -101 11 -55 32 l25 11 0 158 0 157 -25 6 c-14 4 -25 13
-25 21 0 12 16 15 80 15 60 0 80 -3 80 -13z"/>
<path d="M3106 2755 c-150 -53 -187 -298 -62 -413 50 -46 100 -59 192 -49 70
7 117 37 152 95 24 42 27 56 27 142 0 101 -11 137 -58 181 -57 55 -166 74
-251 44z m196 -48 c55 -30 81 -90 81 -183 -1 -123 -56 -190 -167 -201 -47 -5
-64 -2 -110 21 -43 21 -59 36 -75 70 -25 51 -29 165 -6 219 16 39 65 85 98 92
12 2 31 6 42 8 35 7 99 -5 137 -26z"/>
<path d="M3129 2675 c-38 -20 -59 -73 -59 -144 0 -111 39 -163 124 -163 89 0
126 47 126 160 0 115 -35 162 -120 162 -25 -1 -57 -7 -71 -15z m106 -25 c68
-26 73 -204 7 -239 -60 -32 -124 4 -137 77 -20 120 41 196 130 162z"/>
<path d="M4030 2753 c-69 -36 -99 -118 -66 -181 19 -37 48 -62 115 -97 39 -21
56 -36 56 -50 0 -36 -70 -32 -167 10 -16 6 -18 0 -18 -57 l0 -65 39 -11 c21
-7 66 -12 100 -12 111 0 171 50 171 143 0 63 -31 104 -112 146 -67 36 -87 64
-53 77 14 6 78 -6 117 -21 11 -4 21 9 36 45 l21 51 -37 16 c-58 25 -160 28
-202 6z m160 -29 c33 -6 33 -6 24 -28 -5 -12 -18 -14 -74 -9 -65 6 -68 5 -86
-21 -28 -44 -11 -73 71 -117 71 -39 105 -76 105 -117 0 -72 -77 -120 -170
-108 -69 9 -80 15 -80 41 0 22 1 22 53 8 52 -13 101 -10 125 9 18 15 15 72 -5
90 -10 9 -41 27 -70 42 -28 14 -60 37 -72 52 -29 36 -28 95 2 129 34 40 80 48
177 29z"/>
<path d="M1590 2525 l0 -235 150 0 150 0 0 55 0 54 -87 3 -88 3 -3 178 -2 177
-60 0 -60 0 0 -235z m90 25 l0 -179 87 -3 c74 -3 88 -6 91 -20 3 -16 -8 -18
-117 -18 l-121 0 0 200 0 200 30 0 30 0 0 -180z"/>
<path d="M1932 2583 c3 -165 5 -181 26 -215 47 -76 179 -103 272 -55 85 43 99
86 100 305 l0 142 -64 0 -65 0 -3 -166 c-3 -150 -5 -167 -22 -180 -28 -20 -73
-17 -96 6 -18 18 -20 33 -20 180 l0 160 -66 0 -66 0 4 -177z m89 -2 c4 -133 6
-153 25 -178 24 -32 71 -45 119 -32 56 16 60 27 65 198 l5 156 28 3 27 3 0
-153 c0 -136 -2 -157 -20 -186 -56 -92 -230 -92 -284 -2 -13 23 -16 58 -16
184 l0 156 24 0 24 0 3 -149z"/>
<path d="M3480 2525 l0 -235 55 0 54 0 3 138 3 137 79 -137 78 -138 74 0 74 0
0 235 0 235 -60 0 -59 0 -3 -132 -3 -133 -75 132 -75 132 -72 1 -73 0 0 -235z
m212 43 c53 -90 102 -164 111 -166 13 -3 15 18 14 160 -2 162 -2 163 21 166
l22 3 0 -200 0 -201 -44 0 -44 0 -94 162 c-51 90 -101 164 -109 166 -14 3 -16
-16 -11 -163 l5 -165 -27 0 -26 0 0 200 0 200 44 0 44 0 94 -162z"/>
<path d="M610 1495 l0 -75 40 0 c45 0 55 17 13 22 -20 2 -29 9 -31 26 -3 18 1
22 22 22 14 0 26 5 26 10 0 6 -11 10 -25 10 -18 0 -25 5 -25 20 0 16 7 20 30
20 17 0 30 5 30 10 0 6 -18 10 -40 10 l-40 0 0 -75z"/>
<path d="M882 1558 c-21 -21 -13 -48 18 -66 16 -9 30 -25 30 -36 0 -15 -5 -17
-31 -12 -22 4 -29 2 -27 -7 6 -16 42 -21 67 -7 30 15 26 46 -9 72 -39 28 -39
48 1 48 17 0 28 4 24 10 -9 14 -58 13 -73 -2z"/>
<path d="M1161 1544 c-53 -67 5 -148 83 -118 10 4 16 18 16 40 0 30 -3 34 -25
34 -14 0 -25 -4 -25 -10 0 -5 5 -10 10 -10 6 0 10 -9 10 -20 0 -23 -29 -27
-48 -8 -17 17 -15 73 3 88 8 7 26 10 40 8 17 -4 25 -1 25 8 0 9 -12 14 -34 14
-25 0 -40 -7 -55 -26z"/>
<path d="M1675 1550 c-43 -48 -10 -134 49 -128 42 4 46 26 4 25 -26 -2 -34 3
-42 25 -15 42 6 78 44 78 18 0 29 4 25 10 -11 17 -61 11 -80 -10z"/>
<path d="M1960 1550 c-22 -22 -26 -60 -9 -93 24 -45 67 -50 104 -12 48 47 20
125 -45 125 -17 0 -39 -9 -50 -20z m79 -14 c17 -20 10 -77 -11 -90 -26 -16
-52 4 -56 43 -4 36 12 61 38 61 10 0 23 -6 29 -14z"/>
<path d="M2270 1495 c0 -43 4 -75 10 -75 6 0 10 25 10 56 0 64 8 63 46 -6 17
-32 34 -50 46 -50 16 0 18 9 18 75 0 43 -4 75 -10 75 -5 0 -10 -25 -10 -56 0
-64 -8 -63 -46 6 -17 32 -34 50 -46 50 -16 0 -18 -9 -18 -75z"/>
<path d="M2603 1563 c-24 -9 -14 -48 18 -74 37 -30 32 -54 -8 -44 -18 4 -24 2
-21 -7 7 -20 53 -21 72 -3 25 25 19 44 -19 67 -41 23 -41 43 -2 43 16 -1 27 5
27 12 0 13 -42 17 -67 6z"/>
<path d="M2862 1508 c3 -56 6 -64 31 -78 24 -13 30 -13 55 0 24 14 27 22 30
78 2 50 0 62 -12 62 -11 0 -16 -15 -18 -62 -3 -60 -4 -63 -28 -63 -24 0 -25 3
-28 63 -2 47 -7 62 -18 62 -12 0 -14 -12 -12 -62z"/>
<path d="M3180 1495 l0 -75 40 0 c45 0 55 17 13 22 -27 3 -28 6 -31 66 -4 88
-22 78 -22 -13z"/>
<path d="M3430 1560 c0 -5 9 -10 20 -10 18 0 20 -7 20 -65 0 -51 3 -65 15 -65
12 0 15 14 15 65 0 58 2 65 20 65 11 0 20 5 20 10 0 6 -25 10 -55 10 -30 0
-55 -4 -55 -10z"/>
<path d="M3710 1560 c0 -5 5 -10 10 -10 6 0 10 -25 10 -55 0 -30 -4 -55 -10
-55 -5 0 -10 -4 -10 -10 0 -5 13 -10 28 -10 l28 0 -4 60 c-3 39 0 65 8 75 11
13 7 15 -24 15 -20 0 -36 -4 -36 -10z"/>
<path d="M3960 1495 c0 -88 18 -102 22 -17 l3 57 33 -57 c23 -39 40 -58 53
-58 17 0 19 8 19 75 0 60 -3 75 -15 75 -12 0 -15 -13 -15 -57 l-1 -58 -32 57
c-20 36 -39 58 -49 58 -16 0 -18 -10 -18 -75z"/>
<path d="M4302 1554 c-33 -23 -32 -97 2 -119 14 -9 37 -15 53 -13 24 3 28 8
31 41 3 34 1 37 -22 37 -14 0 -26 -4 -26 -10 0 -5 7 -10 15 -10 8 0 15 -9 15
-20 0 -24 -32 -27 -54 -4 -36 35 -6 94 47 94 15 0 27 5 27 10 0 16 -63 12 -88
-6z"/>
</g>
</svg>
