<?xml version="1.0" encoding="UTF-8" standalone="no"?>
<!-- Uploaded to: SVG Repo, www.svgrepo.com, Generator: SVG Repo Mixer Tools -->

<svg
   fill="#000000"
   height="800px"
   width="800px"
   version="1.1"
   id="Layer_1"
   viewBox="0 0 330 330"
   xml:space="preserve"
   sodipodi:docname="right_arrow_hover.svg"
   inkscape:version="1.3.2 (091e20e, 2023-11-25, custom)"
   xmlns:inkscape="http://www.inkscape.org/namespaces/inkscape"
   xmlns:sodipodi="http://sodipodi.sourceforge.net/DTD/sodipodi-0.dtd"
   xmlns="http://www.w3.org/2000/svg"
   xmlns:svg="http://www.w3.org/2000/svg"><defs
   id="defs1" /><sodipodi:namedview
   id="namedview1"
   pagecolor="#ffffff"
   bordercolor="#000000"
   borderopacity="0.25"
   inkscape:showpageshadow="2"
   inkscape:pageopacity="0.0"
   inkscape:pagecheckerboard="0"
   inkscape:deskcolor="#d1d1d1"
   inkscape:zoom="0.97138794"
   inkscape:cx="373.17737"
   inkscape:cy="325.82245"
   inkscape:window-width="2560"
   inkscape:window-height="1334"
   inkscape:window-x="-11"
   inkscape:window-y="-11"
   inkscape:window-maximized="1"
   inkscape:current-layer="Layer_1" />
<path
   id="XMLID_24_"
   d="m 0,15 v 300 c 0,8.284 6.716,15 15,15 h 300 c 8.284,0 15,-6.716 15,-15 V 15 C 330,6.716 323.284,0 315,0 H 15 C 6.716,0 0,6.716 0,15 Z m 135.606,59.394 80,79.998 c 2.813,2.813 4.394,6.628 4.394,10.606 0,3.979 -1.58,7.793 -4.394,10.607 l -80,80.002 c -5.857,5.858 -15.355,5.858 -21.213,0 -5.858,-5.857 -5.858,-15.355 0,-21.213 l 69.393,-69.396 -69.393,-69.392 c -5.858,-5.857 -5.858,-15.355 0,-21.213 5.858,-5.858 15.356,-5.858 21.213,0.001 z"
   style="fill:#0b5917;fill-opacity:1" />
<path
   style="fill:#ffffff;stroke-width:0.300273"
   d="m 219.61386,167.55232 c -0.14624,0.90832 -0.75416,2.66492 -1.35092,3.90355 -1.05849,2.19694 -2.0926,3.26127 -42.2627,43.4978 -26.9177,26.9622 -41.79409,41.65171 -42.95765,42.41799 -5.93726,3.91008 -13.85706,2.93441 -18.76451,-2.31167 -2.09471,-2.23926 -3.23346,-4.50806 -3.86073,-7.69201 -0.41986,-2.13115 -0.41765,-2.57051 0.0242,-4.81312 1.03809,-5.26918 -1.51065,-2.44978 37.94624,-41.97602 L 183.9112,164.99299 149.36447,130.4651 c -19.0007,-18.99033 -35.21438,-35.406183 -36.03039,-36.47966 -2.68586,-3.533319 -3.69265,-7.581185 -2.87853,-11.573352 0.63759,-3.126535 1.70015,-5.203209 3.824,-7.473605 4.91353,-5.252577 12.9302,-6.227814 18.78644,-2.28539 1.07732,0.725257 17.68021,17.125705 42.93428,42.410767 40.25081,40.30022 41.20197,41.27892 42.25707,43.48027 0.59367,1.23863 1.21637,3.13035 1.38376,4.20382 0.34419,2.20719 0.34248,2.50818 -0.0272,4.80437 z"
   id="path1" /><path
   style="fill:#ffffff;stroke-width:0.300273"
   d="m 219.61386,167.55232 c -0.14624,0.90832 -0.75416,2.66492 -1.35092,3.90355 -1.05849,2.19694 -2.0926,3.26127 -42.2627,43.4978 -26.9177,26.9622 -41.79409,41.65171 -42.95765,42.41799 -5.93645,3.90954 -13.85713,2.93434 -18.76308,-2.31014 -4.65766,-4.97906 -5.39601,-11.6988 -1.95102,-17.75628 0.54628,-0.96054 12.61352,-13.25256 36.20163,-36.87596 l 35.3822,-35.43513 -34.54731,-34.52847 c -19.00102,-18.99066 -35.21496,-35.406763 -36.03097,-36.48024 -2.70576,-3.5595 -3.69729,-7.558469 -2.87447,-11.593263 0.63358,-3.10688 1.6997,-5.187142 3.81994,-7.453694 4.91353,-5.252577 12.9302,-6.227814 18.78644,-2.28539 1.07733,0.725257 17.68022,17.125705 42.93429,42.410767 40.2508,40.30022 41.20196,41.27892 42.25707,43.48027 0.59367,1.23863 1.21636,3.13035 1.38375,4.20382 0.34419,2.20719 0.34248,2.50818 -0.0272,4.80437 z"
   id="path2" /><path
   style="fill:#ffffff;stroke-width:0.300273"
   d="m 219.49531,168.074 c -0.95734,4.40648 1.28985,1.98536 -43.51197,46.87967 -26.9342,26.98981 -41.77599,41.65092 -42.94075,42.41799 -5.93645,3.90954 -13.85713,2.93434 -18.76308,-2.31014 -4.37105,-4.67267 -5.30993,-10.87334 -2.51953,-16.63978 1.06229,-2.19525 2.06493,-3.23132 36.61906,-37.84027 L 183.9059,164.99825 148.52679,129.56691 C 124.93545,105.94075 112.8747,93.655518 112.32837,92.694756 c -1.95962,-3.44619 -2.57796,-6.926316 -1.85012,-10.412865 0.63317,-3.033068 1.70366,-5.101066 3.80126,-7.343408 4.92671,-5.266672 12.91449,-6.238394 18.78644,-2.28539 1.07733,0.725257 17.68022,17.125705 42.93429,42.410767 40.2508,40.30022 41.20196,41.27892 42.25707,43.48027 0.99442,2.07476 1.71912,5.07801 1.6665,6.90628 -0.0119,0.41287 -0.20471,1.59349 -0.4285,2.62359 z"
   id="path3" /><path
   style="fill:#ffffff;stroke-width:0.300273"
   d="m 219.49531,168.074 c -0.95734,4.40648 1.28985,1.98536 -43.51197,46.87967 -26.9342,26.98981 -41.77599,41.65092 -42.94075,42.41799 -5.93645,3.90954 -13.85713,2.93434 -18.76308,-2.31014 -2.12036,-2.26667 -3.18636,-4.34683 -3.82007,-7.45432 -0.6319,-3.09865 -0.22667,-5.99574 1.28306,-9.17296 1.05775,-2.22601 1.7602,-2.95209 36.62033,-37.85218 l 35.5419,-35.58264 -35.54201,-35.58206 C 113.50097,94.516331 112.80008,93.791866 111.74239,91.565756 c -2.77529,-5.841149 -1.82642,-11.962632 2.58532,-16.678802 1.36487,-1.459046 2.41691,-2.232999 4.31134,-3.171725 2.30934,-1.144325 2.73961,-1.252981 5.48526,-1.385196 3.6355,-0.175061 6.23055,0.498077 8.93266,2.317066 1.0905,0.734089 17.50402,16.952764 42.92637,42.416761 44.97417,45.04787 42.55843,42.43914 43.52543,47.00253 0.52089,2.45815 0.51842,3.55943 -0.0135,6.00761 z"
   id="path4" /><path
   style="fill:#ffffff;stroke-width:0.300273"
   d="m 219.49531,168.074 c -0.95734,4.40648 1.28985,1.98536 -43.51197,46.87967 -26.9342,26.98981 -41.77599,41.65092 -42.94075,42.41799 -5.64884,3.72013 -13.15475,3.05277 -18.08255,-1.60774 -4.95433,-4.6856 -6.14928,-11.14786 -3.20771,-17.34718 1.04581,-2.204 1.82684,-3.01115 36.6105,-37.83468 l 35.5419,-35.58264 -35.54201,-35.58206 C 113.50097,94.516331 112.80008,93.791866 111.74239,91.565756 c -2.77529,-5.841149 -1.82642,-11.962632 2.58532,-16.678802 1.36487,-1.459046 2.41691,-2.232999 4.31134,-3.171725 2.30934,-1.144325 2.73961,-1.252981 5.48526,-1.385196 3.6355,-0.175061 6.23055,0.498077 8.93266,2.317066 1.0905,0.734089 17.50402,16.952764 42.92637,42.416761 44.97417,45.04787 42.55843,42.43914 43.52543,47.00253 0.52089,2.45815 0.51842,3.55943 -0.0135,6.00761 z"
   id="path5" /><path
   style="fill:#ffffff;stroke-width:0.300273"
   d="m 219.47358,168.26274 c -1.04151,4.30292 1.03262,2.07614 -43.49024,46.69093 -26.9342,26.98981 -41.77599,41.65092 -42.94075,42.41799 -2.43072,1.60079 -5.04849,2.36525 -8.08559,2.36121 -3.90329,-0.005 -7.18146,-1.30617 -9.99417,-3.96631 -4.98136,-4.71116 -6.16055,-11.0934 -3.20557,-17.34982 1.04257,-2.20737 1.76869,-2.95787 36.60557,-37.83468 l 35.5419,-35.58264 -35.54201,-35.58206 C 113.35307,94.368264 112.80435,93.800883 111.72856,91.537009 c -2.78942,-5.869995 -1.84499,-11.899247 2.60988,-16.661523 1.35366,-1.447058 2.41051,-2.22368 4.30061,-3.160257 2.30934,-1.144325 2.73961,-1.252981 5.48526,-1.385196 3.6355,-0.175061 6.23055,0.498077 8.93266,2.317066 1.0905,0.734089 17.50402,16.952764 42.92637,42.416761 44.97417,45.04787 42.55843,42.43914 43.52543,47.00253 0.52723,2.48804 0.51918,3.90606 -0.0352,6.19635 z"
   id="path6" /><path
   style="fill:#ffffff;stroke-width:0.300273"
   d="m 219.47358,168.26274 c -1.04151,4.30292 1.03262,2.07614 -43.49024,46.69093 -27.07789,27.1338 -41.77293,41.64886 -42.94995,42.42393 -2.70623,1.78206 -5.26508,2.45258 -8.81545,2.30998 -2.60745,-0.10473 -3.16003,-0.23361 -5.24293,-1.22277 -6.42845,-3.05286 -9.91732,-9.76063 -8.51661,-16.3742 0.99548,-4.70023 -0.99962,-2.51661 37.92507,-41.50855 l 35.52126,-35.58264 -35.52137,-35.58206 C 109.45805,90.425565 111.45397,92.610053 110.4584,87.909393 c -1.40071,-6.613571 2.08816,-13.321345 8.51661,-16.3742 2.0829,-0.989167 2.63548,-1.118044 5.24293,-1.222774 3.56863,-0.143331 6.18422,0.547532 8.83903,2.33468 1.0905,0.734089 17.50402,16.952764 42.92637,42.416761 44.70399,44.77724 42.45419,42.35643 43.50426,46.81122 0.55176,2.34079 0.54798,4.06582 -0.014,6.38766 z"
   id="path7" /><path
   style="fill:#ffffff;stroke-width:0.300273"
   d="m 219.53846,168.15287 c -0.92492,4.22936 1.10075,2.05274 -43.55512,46.8008 -27.07789,27.1338 -41.77293,41.64886 -42.94995,42.42393 -2.71688,1.78908 -5.26199,2.45271 -8.85328,2.30846 -2.74915,-0.11042 -3.12788,-0.20551 -5.49972,-1.3808 -7.64668,-3.78908 -10.63003,-12.42059 -6.90736,-19.98454 1.00846,-2.04906 2.82411,-3.92137 36.59641,-37.73866 l 35.53529,-35.58264 -35.52137,-35.58206 C 109.45805,90.425565 111.45397,92.610053 110.4584,87.909393 c -1.2608,-5.952981 1.57812,-12.299591 6.99977,-15.648456 4.5873,-2.833499 11.05775,-2.670929 15.60778,0.392156 1.07864,0.726144 17.64288,17.094858 42.91739,42.410767 44.70399,44.77724 42.45419,42.35643 43.50426,46.81122 0.53349,2.26325 0.54761,4.00631 0.0509,6.27779 z"
   id="path8" /><path
   style="fill:#ffffff;stroke-width:0.300273"
   d="m 219.62079,167.85259 c -0.88295,4.53011 0.31586,3.2379 -44.75383,48.24059 -32.50238,32.45407 -41.56374,41.3422 -42.74685,41.92966 -2.43365,1.2084 -4.57617,1.71328 -7.27053,1.71328 -4.31354,0 -7.63542,-1.49677 -10.72276,-4.83148 -4.26645,-4.60827 -5.1576,-10.88697 -2.35379,-16.58392 1.00846,-2.04906 2.82411,-3.92137 36.59641,-37.73866 l 35.53529,-35.58264 -35.52137,-35.58206 C 109.45805,90.425565 111.45397,92.610053 110.4584,87.909393 c -0.76773,-3.624939 -0.0298,-7.585656 2.00367,-10.754572 1.02293,-1.594098 3.51504,-4.039831 5.0948,-4.999999 4.47405,-2.719291 11.04308,-2.508244 15.50908,0.498271 1.07864,0.726144 17.64288,17.094858 42.91739,42.410767 44.70399,44.77724 42.45419,42.35643 43.50426,46.81122 0.49733,2.10986 0.53731,3.90413 0.13319,5.97751 z"
   id="path9" /><path
   style="fill:#ffffff;stroke-width:0.300273"
   d="m 219.48859,168.40722 c -0.87815,4.04621 0.18441,2.91087 -44.48844,47.53583 -32.62352,32.58855 -41.69634,41.49205 -42.88004,42.0798 -2.43367,1.2084 -4.57617,1.71327 -7.27053,1.71327 -4.30992,0 -7.63571,-1.49709 -10.71538,-4.8235 -4.29101,-4.63481 -5.17809,-10.8683 -2.36117,-16.5919 1.00846,-2.04906 2.82411,-3.92137 36.59641,-37.73866 l 35.53529,-35.58264 -35.52137,-35.58206 C 109.45805,90.425565 111.45397,92.610053 110.4584,87.909393 c -0.76773,-3.624939 -0.0298,-7.585656 2.00367,-10.754572 1.02293,-1.594098 3.51504,-4.039831 5.0948,-4.999999 4.47405,-2.719291 11.04308,-2.508244 15.50908,0.498271 1.07864,0.726144 17.64288,17.094858 42.91739,42.410767 44.70399,44.77724 42.45419,42.35643 43.50426,46.81122 0.54854,2.3271 0.54879,4.00803 8.2e-4,6.53214 z"
   id="path10" /><path
   style="fill:#ffffff;stroke-width:0.300273"
   d="m 219.48769,168.58909 c -1.00332,3.96513 -0.25879,3.17263 -44.48754,47.35396 -32.62352,32.58855 -41.69634,41.49205 -42.88004,42.0798 -2.43367,1.2084 -4.57617,1.71327 -7.27053,1.71327 -4.30494,0 -7.63611,-1.49752 -10.70523,-4.81253 -4.31803,-4.664 -5.20053,-10.72217 -2.40456,-16.50685 1.0585,-2.18996 2.06818,-3.23295 36.62672,-37.83468 l 35.53822,-35.58264 -35.5354,-35.58206 c -33.77419,-33.818517 -35.588,-35.688912 -36.59641,-37.738084 -2.81676,-5.723871 -1.92967,-11.957154 2.36128,-16.591897 3.11746,-3.367229 6.37188,-4.823503 10.77936,-4.823503 2.79445,0 5.27291,0.639239 7.57114,1.952734 2.10658,1.203964 83.18846,82.20573 84.91006,84.82616 0.70526,1.07347 1.50986,2.62402 1.78799,3.44566 0.71605,2.11528 0.85895,5.91125 0.30494,8.10066 z"
   id="path11" /><path
   style="fill:#ffffff;stroke-width:0.300273"
   d="m 219.41905,168.7801 c -0.29547,1.08941 -1.10228,2.84352 -1.79546,3.90355 -0.89455,1.36797 -13.23158,13.88701 -42.63048,43.2594 -32.62364,32.59421 -41.6891,41.49195 -42.873,42.0798 -2.43367,1.2084 -4.57617,1.71327 -7.27053,1.71327 -4.30494,0 -7.63611,-1.49752 -10.70523,-4.81253 -4.31803,-4.664 -5.20053,-10.72217 -2.40456,-16.50685 1.0585,-2.18996 2.06818,-3.23295 36.62672,-37.83468 l 35.53822,-35.58264 -35.5354,-35.58206 c -33.77419,-33.818517 -35.588,-35.688912 -36.59641,-37.738084 -2.81676,-5.723871 -1.92967,-11.957154 2.36128,-16.591897 3.10719,-3.356133 6.38027,-4.826266 10.73104,-4.819939 1.34778,0.0021 3.12611,0.184305 3.95186,0.405212 3.89619,1.042325 2.17651,-0.572233 46.0503,43.234988 29.47107,29.42635 41.61187,41.74054 42.52779,43.13513 0.70502,1.07347 1.50943,2.62402 1.78756,3.44566 0.77326,2.28426 0.87712,5.92897 0.2363,8.29167 z"
   id="path12" /><path
   style="fill:#ffffff;stroke-width:0.300273"
   d="m 219.47157,168.5719 c -0.92906,3.83952 0.30795,2.52219 -44.07706,46.93874 l -41.77303,41.80272 -2.40219,1.11156 c -2.17727,1.00748 -2.69738,1.12392 -5.55505,1.24355 -2.67657,0.11204 -3.44772,0.0329 -5.10464,-0.52409 -2.58985,-0.87055 -4.44125,-2.08865 -6.41525,-4.22079 -4.31804,-4.66401 -5.20054,-10.72222 -2.40454,-16.50685 1.05844,-2.18979 2.06691,-3.23166 36.48282,-37.6908 19.46687,-19.49133 35.3943,-35.568 35.3943,-35.72594 0,-0.15794 -15.92612,-16.23461 -35.39138,-35.72594 -33.63274,-33.677767 -35.4441,-35.545888 -36.4525,-37.594784 -2.80618,-5.701662 -1.94004,-11.946095 2.29087,-16.515985 3.18025,-3.435048 6.41717,-4.902228 10.80132,-4.895851 1.34778,0.0021 3.12611,0.184305 3.95186,0.405212 3.90876,1.045679 2.09849,-0.659035 46.70766,43.984318 38.80776,38.83749 41.97226,42.07957 42.83692,43.88716 1.56337,3.26823 1.93438,6.62037 1.10989,10.02777 z"
   id="path13" /><path
   style="fill:#ffffff;stroke-width:0.300273"
   d="m 219.49078,168.5719 c -0.97789,3.86783 0.24752,2.56344 -44.09627,46.93874 l -41.77303,41.80272 -2.40219,1.11156 c -2.17727,1.00748 -2.69738,1.12392 -5.55505,1.24355 -2.67657,0.11204 -3.44772,0.0329 -5.10464,-0.52409 -2.58985,-0.87055 -4.44125,-2.08865 -6.41525,-4.22079 -4.31804,-4.66401 -5.20054,-10.72222 -2.40454,-16.50685 1.05844,-2.18979 2.06691,-3.23166 36.48282,-37.6908 19.46687,-19.49133 35.3943,-35.568 35.3943,-35.72594 0,-0.15794 -15.92743,-16.23461 -35.3943,-35.72594 -34.44155,-34.484819 -35.42353,-35.499375 -36.48052,-37.690802 -2.79797,-5.800954 -1.89687,-12.024808 2.39199,-16.521223 3.23105,-3.387421 6.39467,-4.800902 10.73114,-4.794595 1.34778,0.0021 3.12611,0.184305 3.95186,0.405212 3.89766,1.042713 2.163,-0.586844 46.18338,43.385118 27.11569,27.08586 41.7897,41.95452 42.57046,43.13513 0.65529,0.9909 1.40127,2.47725 1.65774,3.303 0.67614,2.17699 0.7987,5.95353 0.2621,8.076 z"
   id="path14" /><path
   style="fill:#ffffff;stroke-width:0.300273"
   d="m 219.64041,168.15287 c -0.15496,0.74317 -0.7133,2.22952 -1.24076,3.303 -0.87771,1.78627 -4.51039,5.50797 -42.83907,43.88893 l -41.88003,41.93717 -2.4119,1.13184 c -2.20957,1.03688 -2.67805,1.14252 -5.58459,1.25923 -2.68943,0.108 -3.46998,0.0275 -5.12446,-0.52866 -6.93829,-2.33223 -11.41495,-9.43831 -10.26776,-16.29861 0.20811,-1.2445 0.82939,-3.14162 1.45044,-4.42903 1.05535,-2.18768 2.06161,-3.23041 35.20737,-36.48316 18.76653,-18.82712 34.72058,-34.87148 35.45343,-35.65415 l 1.33246,-1.42303 -35.45128,-35.51054 C 113.81983,94.8238 112.80268,93.772614 111.74444,91.583258 c -0.6245,-1.291975 -1.24375,-3.180119 -1.4526,-4.429029 -0.9382,-5.610548 1.81211,-11.399367 7.03116,-14.799097 2.49849,-1.627536 4.93841,-2.205271 8.57404,-2.030206 2.53191,0.121923 3.28752,0.288412 5.19357,1.144358 2.21745,0.995779 2.47521,1.24589 43.76017,42.461826 27.27675,27.23116 41.93832,42.07847 42.72058,43.26179 0.65506,0.9909 1.40085,2.47725 1.65732,3.303 0.57502,1.85142 0.78971,5.84406 0.41173,7.65697 z"
   id="path15" /><path
   style="fill:#000000;stroke-width:0.300273"
   d="m 329.38774,318.5072 c -0.56664,2.1038 -1.94628,4.75888 -3.26925,6.29157 -1.53214,1.77502 -4.39332,3.59275 -6.89228,4.37869 l -2.13795,0.6724 H 165 12.911738 l -2.137955,-0.6724 C 6.8539177,327.94463 3.7057952,325.32799 1.9214705,321.81963 -0.00152158,318.03863 0.15013649,331.46521 0.15013649,165 0.15013649,-1.4652124 -0.00152158,11.961374 1.9214705,8.1803659 3.7057952,4.672008 6.8539177,2.0553679 10.773783,0.82253738 L 12.911738,0.15013763 H 165 317.08826 l 2.13795,0.67239975 c 5.11211,1.60781362 8.80256,5.52397312 10.17652,10.79898562 0.657,2.522384 0.64225,304.445457 -0.015,306.885677 z M 219.32878,160.20067 c -0.3071,-0.99367 -0.97947,-2.48229 -1.49415,-3.30804 C 217.2677,155.98306 200.54528,139.04995 175.41029,113.9338 138.1715,76.7229 133.7372,72.389002 132.12011,71.623844 c -2.58475,-1.223034 -4.46471,-1.652616 -7.24999,-1.656675 -10.9847,-0.016 -18.13033,11.299015 -13.5532,21.461323 0.92172,2.046438 1.96395,3.124304 36.52949,37.778478 l 35.5807,35.67194 -3.13193,3.21341 c -1.72256,1.76738 -17.73631,17.87424 -35.58611,35.79303 -31.51813,31.63993 -32.4814,32.64038 -33.39757,34.68616 -4.56045,10.18341 2.58428,21.49048 13.55862,21.45755 3.0015,-0.009 4.573,-0.35489 7.09985,-1.56262 1.80859,-0.86443 5.00532,-3.98566 43.57466,-42.54542 32.1901,-32.18212 41.83019,-41.98683 42.53766,-43.26406 0.88828,-1.60365 1.70092,-4.01694 1.97168,-5.85532 0.21929,-1.48889 -0.13118,-4.67899 -0.72519,-6.60097 z"
   id="path16" /><path
   style="fill:#0b5917;stroke-width:0.300273;fill-opacity:1"
   d="m 219.5428,168.35244 c -1.05999,4.14979 1.08407,1.86011 -44.01458,47.00372 -41.88906,41.93081 -41.90774,41.94899 -44.27089,43.06502 -2.13578,1.00867 -2.66229,1.12977 -5.45094,1.25379 -3.56876,0.15873 -6.21593,-0.46973 -8.54979,-2.02976 -6.56093,-4.38553 -8.90466,-12.11368 -5.71755,-18.85284 1.12593,-2.38078 2.21288,-3.51075 36.46717,-37.91051 15.87001,-15.93741 30.40725,-30.56544 32.30498,-32.50674 l 3.45043,-3.52963 -31.69466,-31.75168 C 113.30126,94.258337 112.6585,93.592839 111.47662,91.067217 c -3.12939,-6.687351 -0.70596,-14.44384 5.84638,-18.712085 2.49849,-1.627535 4.93841,-2.205271 8.57404,-2.030206 2.53406,0.122022 3.28589,0.287917 5.19357,1.145942 2.2164,0.99688 2.4948,1.267014 43.76102,42.461832 27.32057,27.27329 41.93765,42.075 42.72059,43.2602 0.65458,0.9909 1.39578,2.47725 1.64709,3.303 0.64369,2.11496 0.80283,5.97997 0.32349,7.85654 z"
   id="path17" /><path
   style="fill:#ffffff;stroke-width:0.300273"
   d="m 329.58082,272.94814 -0.19134,45.49135 -0.79019,1.85324 c -1.89794,4.45123 -4.6091,6.94631 -9.46194,8.7078 l -1.92628,0.6992 H 165.03335 c -147.807128,0 -152.224553,-0.0161 -153.807923,-0.56087 -4.0745135,-1.40184 -6.6577881,-3.33978 -8.6438718,-6.48452 -0.6712734,-1.06288 -1.3700228,-2.5136 -1.5527765,-3.22382 C 0.49578012,317.35918 0.20133762,262.40553 0.20133762,165 0.20133762,67.594473 0.49578012,12.640803 1.0287787,10.569488 1.2115324,9.8592533 1.9102818,8.4085444 2.5815552,7.345668 4.5676389,4.2009083 7.1509135,2.2629791 11.225427,0.8611515 12.808797,0.31636687 17.226123,0.30027113 165.02911,0.30027113 H 317.2026 l 2.19488,0.78854737 c 4.14206,1.4880937 6.86983,3.8642134 8.73023,7.6047757 0.90088,1.8113658 0.97658,2.2118988 1.16335,6.1555928 0.29111,6.14677 0.51406,204.761773 0.28976,258.098953 z M 219.80496,161.7466 c -0.98575,-4.6524 1.68795,-1.74977 -40.92722,-44.43148 -21.42279,-21.456237 -40.48152,-40.41774 -42.35272,-42.136677 -4.79279,-4.402774 -6.61674,-5.209937 -11.7616,-5.204942 -2.21562,0.0021 -3.29556,0.159143 -4.83637,0.703061 -8.50901,3.003767 -12.53687,12.778553 -8.61494,20.906696 1.04008,2.155552 4.53306,5.742314 50.20802,51.556082 l 21.61324,21.67893 -1.6069,1.74237 c -0.88379,0.9583 -13.44808,13.63317 -27.92065,28.16638 -39.34353,39.5084 -41.18335,41.40955 -42.29784,43.7079 -3.92893,8.10235 0.10707,17.88369 8.61907,20.88852 1.59521,0.56312 2.60134,0.70029 5.13664,0.70029 3.88324,0 6.40454,-0.77951 8.78084,-2.71478 1.99005,-1.6207 74.12952,-73.57877 80.00093,-79.79977 2.91697,-3.09064 4.54553,-5.06675 4.94928,-6.00546 1.4783,-3.43711 1.76421,-6.19852 1.01022,-9.75712 z"
   id="path18" /></svg>
