<?xml version="1.0" encoding="UTF-8" standalone="no"?>
<!-- Uploaded to: SVG Repo, www.svgrepo.com, Generator: SVG Repo Mixer Tools -->

<svg
   fill="#000000"
   height="800px"
   width="800px"
   version="1.1"
   id="Layer_1"
   viewBox="0 0 330 330"
   xml:space="preserve"
   sodipodi:docname="right_arrow.svg"
   inkscape:version="1.3.2 (091e20e, 2023-11-25, custom)"
   xmlns:inkscape="http://www.inkscape.org/namespaces/inkscape"
   xmlns:sodipodi="http://sodipodi.sourceforge.net/DTD/sodipodi-0.dtd"
   xmlns="http://www.w3.org/2000/svg"
   xmlns:svg="http://www.w3.org/2000/svg"><defs
   id="defs1" /><sodipodi:namedview
   id="namedview1"
   pagecolor="#ffffff"
   bordercolor="#000000"
   borderopacity="0.25"
   inkscape:showpageshadow="2"
   inkscape:pageopacity="0.0"
   inkscape:pagecheckerboard="0"
   inkscape:deskcolor="#d1d1d1"
   inkscape:zoom="0.97138794"
   inkscape:cx="322.73409"
   inkscape:cy="327.88136"
   inkscape:window-width="2560"
   inkscape:window-height="1334"
   inkscape:window-x="-11"
   inkscape:window-y="-11"
   inkscape:window-maximized="1"
   inkscape:current-layer="Layer_1"
   inkscape:rotation="90" />
<path
   id="XMLID_24_"
   d="M 0.00183132,14.998169 V 314.99817 c 0,8.284 6.71599998,15 14.99999968,15 H 315.00183 c 8.284,0 15,-6.716 15,-15 V 14.998169 c 0,-8.2840003 -6.716,-15.00000032 -15,-15.00000032 H 15.001831 c -8.2839997,0 -14.99999968,6.71600002 -14.99999968,15.00000032 z m 135.60599868,59.394 80,79.998001 c 2.813,2.813 4.394,6.628 4.394,10.606 0,3.979 -1.58,7.793 -4.394,10.607 l -80,80.002 c -5.857,5.858 -15.355,5.858 -21.213,0 -5.858,-5.857 -5.858,-15.355 0,-21.213 l 69.393,-69.396 -69.393,-69.392001 c -5.858,-5.857 -5.858,-15.355 0,-21.213 5.858,-5.858 15.356,-5.858 21.213,10e-4 z"
   style="fill:#0b5917;fill-opacity:1" />
<path
   style="fill:#ffffff;stroke-width:0.300273"
   d="m 219.61569,167.55049 c -0.14624,0.90832 -0.75415,2.66492 -1.35092,3.90355 -1.05849,2.19694 -2.09259,3.26127 -42.2627,43.4978 -26.91769,26.9622 -41.79409,41.65171 -42.95765,42.41799 -5.93726,3.91008 -13.85706,2.93441 -18.76451,-2.31167 -2.09471,-2.23926 -3.23346,-4.50806 -3.86073,-7.69201 -0.41986,-2.13115 -0.41765,-2.57051 0.0242,-4.81312 1.03809,-5.26918 -1.51065,-2.44978 37.94624,-41.97602 l 35.52342,-35.58585 -34.54674,-34.52789 c -19.0007,-18.99033 -35.21438,-35.406184 -36.03039,-36.479662 -2.68586,-3.533318 -3.69265,-7.581185 -2.87853,-11.573351 0.63759,-3.126536 1.70015,-5.203209 3.824,-7.473605 4.91353,-5.252577 12.9302,-6.227814 18.78644,-2.28539 1.07733,0.725257 17.68022,17.125704 42.93429,42.410768 40.2508,40.30022 41.20196,41.27891 42.25707,43.48027 0.59367,1.23863 1.21636,3.13035 1.38375,4.20382 0.34419,2.20719 0.34248,2.50818 -0.0272,4.80437 z"
   id="path1" /><path
   style="fill:#ffffff;stroke-width:0.300273"
   d="m 219.61569,167.55049 c -0.14624,0.90832 -0.75415,2.66492 -1.35092,3.90355 -1.05849,2.19694 -2.09259,3.26127 -42.2627,43.4978 -26.91769,26.9622 -41.79409,41.65171 -42.95765,42.41799 -5.93645,3.90954 -13.85712,2.93434 -18.76308,-2.31014 -4.65766,-4.97907 -5.39601,-11.6988 -1.95102,-17.75628 0.54628,-0.96054 12.61352,-13.25256 36.20163,-36.87596 l 35.3822,-35.43513 -34.54731,-34.52847 c -19.00102,-18.99066 -35.21496,-35.406764 -36.03096,-36.480242 -2.70577,-3.559499 -3.69729,-7.558468 -2.87448,-11.593263 0.63358,-3.10688 1.6997,-5.187142 3.81994,-7.453693 4.91353,-5.252577 12.9302,-6.227814 18.78644,-2.28539 1.07733,0.725257 17.68022,17.125704 42.93429,42.410768 40.2508,40.30022 41.20196,41.27891 42.25707,43.48027 0.59367,1.23863 1.21636,3.13035 1.38375,4.20382 0.34419,2.20719 0.34249,2.50818 -0.0272,4.80437 z"
   id="path2" /><path
   style="fill:#ffffff;stroke-width:0.300273"
   d="m 219.49714,168.07216 c -0.95734,4.40649 1.28985,1.98537 -43.51197,46.87968 -26.93419,26.98981 -41.77599,41.65092 -42.94075,42.41799 -5.93645,3.90954 -13.85712,2.93434 -18.76308,-2.31014 -4.37105,-4.67267 -5.30993,-10.87334 -2.51953,-16.63978 1.06229,-2.19525 2.06493,-3.23132 36.61906,-37.84027 l 35.52686,-35.58322 -35.37911,-35.43134 c -23.59134,-23.62617 -35.65209,-35.911393 -36.19841,-36.872155 -1.95963,-3.44619 -2.57797,-6.926317 -1.85013,-10.412866 0.63318,-3.033067 1.70366,-5.101065 3.80126,-7.343407 4.92671,-5.266672 12.91449,-6.238394 18.78644,-2.28539 1.07733,0.725257 17.68022,17.125704 42.93429,42.410768 40.2508,40.30022 41.20196,41.27891 42.25707,43.48027 0.99442,2.07476 1.71912,5.07801 1.66651,6.90628 -0.0119,0.41287 -0.20472,1.59348 -0.42851,2.62358 z"
   id="path3" /><path
   style="fill:#ffffff;stroke-width:0.300273"
   d="m 219.49714,168.07216 c -0.95734,4.40649 1.28985,1.98537 -43.51197,46.87968 -26.93419,26.98981 -41.77599,41.65092 -42.94075,42.41799 -5.93645,3.90954 -13.85712,2.93434 -18.76308,-2.31014 -2.12036,-2.26668 -3.18636,-4.34683 -3.82007,-7.45432 -0.6319,-3.09865 -0.22667,-5.99574 1.28306,-9.17296 1.05775,-2.22601 1.7602,-2.95209 36.62033,-37.85218 l 35.54191,-35.58264 -35.54201,-35.58206 C 113.5028,94.5145 112.80191,93.790034 111.74422,91.563925 c -2.77529,-5.841149 -1.82642,-11.962632 2.58532,-16.678803 1.36487,-1.459045 2.41691,-2.232998 4.31134,-3.171725 2.30934,-1.144324 2.73961,-1.252981 5.48526,-1.385195 3.6355,-0.175061 6.23055,0.498077 8.93266,2.317066 1.0905,0.734089 17.50402,16.952764 42.92637,42.416762 44.97417,45.04787 42.55843,42.43914 43.52543,47.00253 0.52089,2.45814 0.51843,3.55943 -0.0135,6.0076 z"
   id="path4" /><path
   style="fill:#ffffff;stroke-width:0.300273"
   d="m 219.49714,168.07216 c -0.95734,4.40649 1.28985,1.98537 -43.51197,46.87968 -26.93419,26.98981 -41.77599,41.65092 -42.94075,42.41799 -5.64884,3.72013 -13.15475,3.05277 -18.08255,-1.60774 -4.95433,-4.6856 -6.14928,-11.14786 -3.2077,-17.34718 1.0458,-2.204 1.82683,-3.01115 36.61049,-37.83468 l 35.54191,-35.58264 -35.54201,-35.58206 C 113.5028,94.5145 112.80191,93.790034 111.74422,91.563925 c -2.77529,-5.841149 -1.82642,-11.962632 2.58532,-16.678803 1.36487,-1.459045 2.41691,-2.232998 4.31134,-3.171725 2.30934,-1.144324 2.73961,-1.252981 5.48526,-1.385195 3.6355,-0.175061 6.23055,0.498077 8.93266,2.317066 1.0905,0.734089 17.50402,16.952764 42.92637,42.416762 44.97417,45.04787 42.55843,42.43914 43.52543,47.00253 0.52089,2.45814 0.51843,3.55943 -0.0135,6.0076 z"
   id="path5" /><path
   style="fill:#ffffff;stroke-width:0.300273"
   d="m 219.47541,168.26091 c -1.0415,4.30292 1.03262,2.07614 -43.49024,46.69093 -26.93419,26.98981 -41.77599,41.65092 -42.94075,42.41799 -2.43072,1.60079 -5.04849,2.36525 -8.08559,2.36121 -3.90329,-0.005 -7.18146,-1.30617 -9.99416,-3.96631 -4.98137,-4.71116 -6.16056,-11.0934 -3.20557,-17.34982 1.04256,-2.20737 1.76868,-2.95787 36.60556,-37.83468 l 35.54191,-35.58264 -35.54201,-35.58206 C 113.3549,94.366433 112.80619,93.799052 111.73039,91.535177 c -2.78942,-5.869994 -1.84499,-11.899247 2.60988,-16.661522 1.35366,-1.447058 2.41051,-2.22368 4.30061,-3.160258 2.30934,-1.144324 2.73961,-1.252981 5.48526,-1.385195 3.6355,-0.175061 6.23055,0.498077 8.93266,2.317066 1.0905,0.734089 17.50402,16.952764 42.92637,42.416762 44.97417,45.04787 42.55843,42.43914 43.52543,47.00253 0.52723,2.48804 0.51918,3.90606 -0.0352,6.19635 z"
   id="path6" /><path
   style="fill:#ffffff;stroke-width:0.300273"
   d="m 219.47541,168.26091 c -1.0415,4.30292 1.03262,2.07614 -43.49024,46.69093 -27.07789,27.1338 -41.77292,41.64886 -42.94994,42.42393 -2.70623,1.78206 -5.26509,2.45258 -8.81545,2.30998 -2.60746,-0.10473 -3.16004,-0.23361 -5.24294,-1.22277 -6.42845,-3.05286 -9.91732,-9.76063 -8.5166,-16.3742 0.99547,-4.70023 -0.99963,-2.51661 37.92506,-41.50855 l 35.52127,-35.58264 -35.52138,-35.58206 C 109.45989,90.423733 111.4558,92.608222 110.46024,87.907562 c -1.40072,-6.613572 2.08815,-13.321345 8.5166,-16.3742 2.0829,-0.989167 2.63548,-1.118044 5.24294,-1.222774 3.56862,-0.143331 6.18421,0.547532 8.83902,2.33468 1.0905,0.734089 17.50402,16.952764 42.92637,42.416762 44.70399,44.77724 42.45419,42.35643 43.50426,46.81122 0.55176,2.34079 0.54798,4.06582 -0.014,6.38766 z"
   id="path7" /><path
   style="fill:#ffffff;stroke-width:0.300273"
   d="m 219.54029,168.15103 c -0.92492,4.22937 1.10075,2.05274 -43.55512,46.80081 -27.07789,27.1338 -41.77292,41.64886 -42.94994,42.42393 -2.71689,1.78907 -5.26199,2.4527 -8.85328,2.30846 -2.74916,-0.11042 -3.12789,-0.20551 -5.49973,-1.38081 -7.64667,-3.78907 -10.63003,-12.42058 -6.90736,-19.98453 1.00846,-2.04906 2.82411,-3.92137 36.59641,-37.73866 l 35.5353,-35.58264 -35.52138,-35.58206 C 109.45989,90.423733 111.4558,92.608222 110.46024,87.907562 109.19943,81.95458 112.03835,75.607971 117.46,72.259106 c 4.5873,-2.8335 11.05775,-2.670929 15.60778,0.392156 1.07864,0.726144 17.64289,17.094858 42.91739,42.410768 44.70399,44.77724 42.45419,42.35643 43.50426,46.81122 0.53349,2.26325 0.54761,4.00631 0.0509,6.27778 z"
   id="path8" /><path
   style="fill:#ffffff;stroke-width:0.300273"
   d="m 219.62262,167.85076 c -0.88295,4.53011 0.31586,3.2379 -44.75383,48.24059 -32.50238,32.45407 -41.56374,41.3422 -42.74685,41.92966 -2.43365,1.2084 -4.57616,1.71328 -7.27052,1.71328 -4.31355,0 -7.63542,-1.49677 -10.72277,-4.83148 -4.26645,-4.60827 -5.1576,-10.88697 -2.35379,-16.58392 1.00846,-2.04906 2.82411,-3.92137 36.59641,-37.73866 l 35.5353,-35.58264 -35.52138,-35.58206 C 109.45989,90.423733 111.4558,92.608222 110.46024,87.907562 c -0.76774,-3.624939 -0.0298,-7.585657 2.00366,-10.754572 1.02293,-1.594098 3.51504,-4.039832 5.0948,-5 4.47405,-2.71929 11.04308,-2.508243 15.50908,0.498272 1.07864,0.726144 17.64289,17.094858 42.91739,42.410768 44.70399,44.77724 42.45419,42.35643 43.50426,46.81122 0.49733,2.10986 0.53731,3.90413 0.13319,5.97751 z"
   id="path9" /><path
   style="fill:#ffffff;stroke-width:0.300273"
   d="m 219.49042,168.40539 c -0.87815,4.04621 0.18441,2.91087 -44.48844,47.53583 -32.62352,32.58855 -41.69634,41.49205 -42.88004,42.0798 -2.43366,1.2084 -4.57617,1.71327 -7.27052,1.71327 -4.30993,0 -7.63572,-1.49709 -10.71538,-4.8235 -4.29102,-4.63481 -5.1781,-10.8683 -2.36118,-16.5919 1.00846,-2.04906 2.82411,-3.92137 36.59641,-37.73866 l 35.5353,-35.58264 -35.52138,-35.58206 C 109.45989,90.423733 111.4558,92.608222 110.46024,87.907562 c -0.76774,-3.624939 -0.0298,-7.585657 2.00366,-10.754572 1.02293,-1.594098 3.51504,-4.039832 5.0948,-5 4.47405,-2.71929 11.04308,-2.508243 15.50908,0.498272 1.07864,0.726144 17.64289,17.094858 42.91739,42.410768 44.70399,44.77724 42.45419,42.35643 43.50426,46.81122 0.54854,2.3271 0.54879,4.00803 8.3e-4,6.53214 z"
   id="path10" /><path
   style="fill:#ffffff;stroke-width:0.300273"
   d="m 219.48953,168.58726 c -1.00333,3.96512 -0.2588,3.17263 -44.48755,47.35396 -32.62352,32.58855 -41.69634,41.49205 -42.88004,42.0798 -2.43366,1.2084 -4.57617,1.71327 -7.27052,1.71327 -4.30495,0 -7.63612,-1.49752 -10.70524,-4.81254 -4.31803,-4.66399 -5.20053,-10.72216 -2.40456,-16.50684 1.0585,-2.18997 2.06819,-3.23295 36.62673,-37.83468 l 35.53822,-35.58264 -35.53541,-35.58206 c -33.77418,-33.818519 -35.588,-35.688913 -36.59641,-37.738085 -2.81676,-5.723871 -1.92967,-11.957154 2.36129,-16.591897 3.11746,-3.367229 6.37187,-4.823503 10.77935,-4.823503 2.79445,0 5.27291,0.639239 7.57114,1.952734 2.10658,1.203964 83.18846,82.205731 84.91006,84.826161 0.70526,1.07347 1.50986,2.62402 1.78799,3.44566 0.71606,2.11528 0.85895,5.91125 0.30495,8.10066 z"
   id="path11" /><path
   style="fill:#ffffff;stroke-width:0.300273"
   d="m 219.42089,168.77827 c -0.29548,1.08941 -1.10229,2.84351 -1.79546,3.90354 -0.89456,1.36798 -13.23159,13.88702 -42.63049,43.25941 -32.62363,32.59421 -41.6891,41.49195 -42.873,42.0798 -2.43366,1.2084 -4.57617,1.71327 -7.27052,1.71327 -4.30495,0 -7.63612,-1.49752 -10.70524,-4.81254 -4.31803,-4.66399 -5.20053,-10.72216 -2.40456,-16.50684 1.0585,-2.18997 2.06819,-3.23295 36.62673,-37.83468 l 35.53822,-35.58264 -35.53541,-35.58206 c -33.77418,-33.818519 -35.588,-35.688913 -36.59641,-37.738085 -2.81676,-5.723871 -1.92967,-11.957154 2.36129,-16.591897 3.10718,-3.356133 6.38026,-4.826267 10.73103,-4.819939 1.34778,0.0021 3.12612,0.184305 3.95187,0.405211 3.89619,1.042326 2.1765,-0.572232 46.0503,43.23499 29.47106,29.42635 41.61187,41.74054 42.52778,43.13513 0.70502,1.07347 1.50943,2.62402 1.78756,3.44566 0.77326,2.28426 0.87712,5.92897 0.23631,8.29167 z"
   id="path12" /><path
   style="fill:#ffffff;stroke-width:0.300273"
   d="m 219.4734,168.57007 c -0.92906,3.83952 0.30795,2.52219 -44.07706,46.93874 l -41.77303,41.80272 -2.40219,1.11156 c -2.17727,1.00748 -2.69738,1.12391 -5.55505,1.24354 -2.67657,0.11205 -3.44772,0.0329 -5.10464,-0.52408 -2.58985,-0.87055 -4.44125,-2.08865 -6.41525,-4.2208 -4.31804,-4.66401 -5.20054,-10.72221 -2.40454,-16.50684 1.05844,-2.18979 2.06691,-3.23166 36.48282,-37.69081 19.46687,-19.49132 35.3943,-35.56799 35.3943,-35.72593 0,-0.15794 -15.92612,-16.23462 -35.39138,-35.72594 -33.63274,-33.677768 -35.4441,-35.54589 -36.4525,-37.594785 -2.80618,-5.701662 -1.94004,-11.946095 2.29087,-16.515985 3.18026,-3.435048 6.41717,-4.902228 10.80132,-4.895851 1.34778,0.0021 3.12612,0.184305 3.95187,0.405211 3.90875,1.045679 2.09848,-0.659035 46.70765,43.98431 38.80777,38.8375 41.97226,42.07958 42.83692,43.88717 1.56337,3.26823 1.93438,6.62037 1.10989,10.02777 z"
   id="path13" /><path
   style="fill:#ffffff;stroke-width:0.300273"
   d="m 219.49261,168.57007 c -0.97788,3.86783 0.24752,2.56344 -44.09627,46.93874 l -41.77303,41.80272 -2.40219,1.11156 c -2.17727,1.00748 -2.69738,1.12391 -5.55505,1.24354 -2.67657,0.11205 -3.44772,0.0329 -5.10464,-0.52408 -2.58985,-0.87055 -4.44125,-2.08865 -6.41525,-4.2208 -4.31804,-4.66401 -5.20054,-10.72221 -2.40454,-16.50684 1.05844,-2.18979 2.06691,-3.23166 36.48282,-37.69081 19.46687,-19.49132 35.3943,-35.56799 35.3943,-35.72593 0,-0.15794 -15.92743,-16.23462 -35.3943,-35.72594 -34.44155,-34.48482 -35.42353,-35.499376 -36.48052,-37.690803 -2.79797,-5.800955 -1.89686,-12.024808 2.39199,-16.521223 3.23105,-3.387421 6.39467,-4.800902 10.73114,-4.794595 1.34778,0.0021 3.12612,0.184305 3.95187,0.405211 3.89765,1.042714 2.16299,-0.586843 46.18338,43.38512 27.11568,27.08586 41.78969,41.95452 42.57045,43.13513 0.65529,0.9909 1.40127,2.47725 1.65774,3.303 0.67614,2.17699 0.79871,5.95352 0.2621,8.076 z"
   id="path14" /><path
   style="fill:#ffffff;stroke-width:0.300273"
   d="m 219.64224,168.15103 c -0.15495,0.74318 -0.7133,2.22953 -1.24076,3.30301 -0.87771,1.78627 -4.51039,5.50797 -42.83907,43.88893 l -41.88003,41.93717 -2.4119,1.13183 c -2.20957,1.03689 -2.67804,1.14253 -5.58458,1.25924 -2.68943,0.108 -3.46999,0.0275 -5.12447,-0.52866 -6.93828,-2.33224 -11.41495,-9.43831 -10.26776,-16.29861 0.20811,-1.2445 0.82939,-3.14162 1.45044,-4.42903 1.05535,-2.18768 2.06161,-3.23041 35.20737,-36.48317 18.76653,-18.82711 34.72058,-34.87148 35.45343,-35.65414 l 1.33246,-1.42303 -35.45128,-35.51055 C 113.82167,94.821969 112.80451,93.770783 111.74627,91.581427 c -0.6245,-1.291975 -1.24375,-3.180119 -1.4526,-4.429029 -0.9382,-5.610549 1.81211,-11.399367 7.03116,-14.799098 2.49849,-1.627535 4.93841,-2.20527 8.57404,-2.030205 2.53191,0.121923 3.28752,0.288412 5.19358,1.144358 2.21744,0.995779 2.4752,1.24589 43.76016,42.461827 27.27675,27.23116 41.93832,42.07847 42.72058,43.26179 0.65506,0.9909 1.40085,2.47725 1.65732,3.303 0.57502,1.85141 0.78971,5.84406 0.41173,7.65696 z"
   id="path15" /><path
   style="fill:#ffffff;fill-opacity:1;stroke-width:0.424648"
   d="m 130.30979,71.090852 c 1.01821,0.396025 2.86619,1.579962 4.10661,2.630971 1.24043,1.051013 20.39413,20.064722 42.56379,42.252687 45.56261,45.60024 42.77259,42.4011 42.77462,49.04709 8.2e-4,2.79908 -0.20395,4.05371 -0.91214,5.58781 -1.28515,2.78391 -9.94117,11.73117 -50.32169,52.01474 -27.76911,27.70245 -34.99999,34.69577 -36.87762,35.66604 -2.10655,1.08857 -2.75197,1.20737 -6.58207,1.21149 -5.06947,0.005 -7.26207,-0.85267 -10.53635,-4.12364 -3.01452,-3.01148 -4.29957,-6.08494 -4.31444,-10.31882 -0.0106,-3.01318 0.1508,-3.73675 1.39888,-6.27196 1.29444,-2.62939 4.32254,-5.79268 36.70399,-38.34266 l 35.29316,-35.47683 -25.27927,-25.34593 C 115.39769,96.579079 113.36053,94.467817 111.68481,91.282818 c -1.34472,-2.555887 -1.48627,-3.153414 -1.48627,-6.273877 0,-3.039556 0.16536,-3.784845 1.39309,-6.278729 1.70218,-3.457616 4.73243,-6.316262 7.98568,-7.533463 2.94264,-1.100983 8.04459,-1.15132 10.73248,-0.105897 z"
   id="path16" /><path
   style="fill:#ffffff;fill-opacity:1;stroke-width:0.424648"
   d="m 130.30979,71.06689 c 1.01821,0.409209 2.86781,1.603924 4.11023,2.654933 1.24241,1.051013 20.39611,20.064722 42.56377,42.252687 45.563,45.60473 42.77795,42.41096 42.77033,49.04709 -0.003,2.7825 -0.21217,4.06156 -0.91203,5.58241 -1.2986,2.82193 -9.60858,11.40991 -50.1073,51.78358 -28.50159,28.41358 -35.58359,35.25949 -37.30375,36.06015 -3.16385,1.47263 -8.51304,1.66492 -11.80392,0.42432 -3.18692,-1.20141 -6.70362,-4.58148 -8.26087,-7.93994 -0.93641,-2.01953 -1.14596,-3.08433 -1.15575,-5.8729 -0.0106,-3.01848 0.14987,-3.73487 1.41003,-6.29462 1.30938,-2.65973 4.21391,-5.69371 36.6769,-38.3116 l 35.25491,-35.42312 -35.28033,-35.48305 C 108.21117,89.25581 110.18737,91.569568 110.2105,84.983984 c 0.01,-2.768918 0.22107,-3.856978 1.12974,-5.816085 1.4269,-3.076416 3.95,-5.809777 6.80418,-7.371201 1.95781,-1.071048 2.76291,-1.244274 6.27989,-1.351185 3.07712,-0.09354 4.47338,0.05388 5.88548,0.621377 z"
   id="path17" /><path
   style="fill:#ffffff;fill-opacity:1;stroke-width:0.424648"
   d="m 130.30979,71.06689 c 1.01821,0.409209 2.86781,1.603924 4.11023,2.654933 1.24241,1.051013 20.39611,20.064722 42.56377,42.252687 45.73264,45.77452 42.78812,42.38224 42.75741,49.25941 -0.0139,3.12284 -0.19246,4.15621 -0.97598,5.64992 -1.43724,2.73993 -11.293,12.88593 -50.03043,51.50375 -28.50159,28.41358 -35.58359,35.25949 -37.30375,36.06015 -3.10591,1.44566 -8.51779,1.66365 -11.67788,0.47037 -3.3591,-1.26843 -6.46416,-4.15728 -8.15071,-7.58316 -1.2225,-2.48325 -1.39352,-3.24814 -1.39838,-6.2543 -0.005,-3.03414 0.15713,-3.7556 1.41978,-6.32152 1.31416,-2.6706 4.16216,-5.64611 36.51991,-38.15489 19.30203,-19.39212 35.0946,-35.40042 35.0946,-35.57399 0,-0.17357 -15.80419,-16.20937 -35.12043,-35.63511 -32.10996,-32.291984 -35.24039,-35.563307 -36.51991,-38.163542 -1.23688,-2.513569 -1.39775,-3.239631 -1.3846,-6.24888 0.0121,-2.75953 0.22619,-3.861631 1.12975,-5.814819 1.42222,-3.074379 3.94514,-5.808726 6.80125,-7.371201 1.95781,-1.071048 2.76291,-1.244274 6.27989,-1.351185 3.07712,-0.09354 4.47338,0.05388 5.88548,0.621377 z"
   id="path18" /><path
   style="fill:#0b5917;fill-opacity:1;stroke-width:0.424648"
   d="m 319.63604,1.0468798 c 4.38819,1.5186724 7.59726,4.6889246 9.30227,9.1897532 0.78392,2.069372 0.80434,6.00249 0.80434,154.997287 v 152.87405 l -1.32002,2.76022 c -1.58375,3.31173 -4.20764,5.9976 -7.38246,7.55685 l -2.33843,1.14848 H 164.9784 11.255059 l -2.0208882,-0.942 c -2.6740387,-1.24646 -6.098256,-4.50024 -7.3634161,-6.99692 -0.5603768,-1.10585 -1.20634604,-3.3072 -1.43548302,-4.89189 -0.57025838,-3.94381 -0.57025838,-299.498407 0,-303.442225 C 1.1887369,8.0896202 4.2081565,3.9306343 8.9166299,1.6181593 L 11.255059,0.46968093 164.34143,0.37616306 C 310.78319,0.28670831 317.52364,0.31582256 319.63604,1.0468798 Z M 118.36416,71.320054 c -3.11363,1.523362 -6.33717,5.049483 -7.53484,8.242129 -0.73898,1.969898 -0.88673,3.136122 -0.76647,6.049845 0.28055,6.796998 -1.96101,4.18235 37.51773,43.762072 19.26144,19.31071 35.0208,35.35529 35.0208,35.65462 0,0.29933 -15.75666,16.33479 -35.01479,35.63436 -39.48653,39.57149 -37.24249,36.95401 -37.52374,43.76809 -0.12026,2.91373 0.0275,4.07995 0.76647,6.04985 1.19285,3.17977 4.30042,6.57207 7.50687,8.19468 2.23056,1.12876 2.88231,1.25385 6.51278,1.24998 7.20321,-0.008 3.21884,3.43782 50.03502,-43.26793 22.73133,-22.67773 41.8961,-42.04227 42.58837,-43.03232 1.8429,-2.63565 2.55036,-5.01512 2.55826,-8.60446 0.005,-2.23796 -0.27035,-3.94321 -0.92544,-5.73277 -0.90199,-2.46407 -2.29379,-3.9112 -42.6047,-44.29852 -23.05902,-23.102739 -42.49621,-42.240796 -43.51699,-42.847287 -3.18453,-1.892063 -4.69133,-2.263981 -8.5935,-2.121128 -2.93525,0.107464 -4.10708,0.360034 -6.02583,1.298789 z"
   id="path19" /><path
   style="fill:#0b5917;fill-opacity:1;stroke-width:0.424648"
   d="m 319.63604,1.0468798 c 4.38819,1.5186724 7.59726,4.6889246 9.30227,9.1897532 0.78392,2.069372 0.80434,6.00249 0.80434,154.997287 v 152.87405 l -1.22052,2.64233 c -1.43363,3.1037 -4.79331,6.5015 -7.80298,7.89149 l -2.01741,0.93173 H 164.9784 11.255059 L 8.8720123,328.40266 C 5.7207854,326.85437 2.5307884,323.43628 1.2358348,320.22049 L 0.21415638,317.68332 0.09208221,167.35717 C 0.0109528,67.454244 0.11449949,15.928882 0.40078586,13.745189 1.1383267,8.1194068 3.9900433,4.0373769 8.8499856,1.6507633 L 11.255059,0.46968093 164.34143,0.37616306 C 310.78319,0.28670831 317.52364,0.31582256 319.63604,1.0468798 Z M 118.29557,71.390542 c -3.12827,1.582767 -6.28204,5.012997 -7.43008,8.081407 -1.19245,3.187107 -1.18958,7.826771 0.007,11.024438 1.14808,3.06853 1.54553,3.488314 37.99314,40.128553 16.37924,16.46581 30.70275,30.94768 31.83003,32.18193 l 2.04959,2.24409 -1.66334,1.79009 c -0.91484,0.98454 -16.1985,16.40866 -33.96371,34.27581 -17.7652,17.86715 -33.01959,33.38282 -33.89863,34.47925 -3.10999,3.87909 -4.07969,9.22762 -2.58532,14.2597 1.86374,6.27588 8.7067,10.74358 15.60707,10.18968 3.84022,-0.30826 5.9176,-1.40182 10.49802,-5.52632 2.2188,-1.99795 21.34926,-20.99354 42.51214,-42.21244 30.0642,-30.14378 38.68448,-39.02008 39.42244,-40.5933 1.85935,-3.96387 1.85812,-9.42868 -0.003,-13.38367 -0.74019,-1.5729 -9.87754,-10.96384 -41.75802,-42.91694 -22.44577,-22.49689 -41.54077,-41.489718 -42.43333,-42.206284 -0.89256,-0.716558 -2.70794,-1.760472 -4.03418,-2.319801 -2.04756,-0.863548 -2.96171,-0.995445 -6.05955,-0.87431 -3.00964,0.11769 -4.07562,0.358912 -6.09005,1.378117 z"
   id="path20" /><path
   style="fill:#0b5917;fill-opacity:1;stroke-width:0.424648"
   d="m 319.63604,1.0468798 c 4.38819,1.5186724 7.59726,4.6889246 9.30227,9.1897532 0.78392,2.069372 0.80434,6.00249 0.80434,154.997287 v 152.87405 l -1.22052,2.64233 c -1.43363,3.1037 -4.79331,6.5015 -7.80298,7.89149 l -2.01741,0.93173 H 164.9784 11.255059 L 9.2518872,328.64809 C 6.6127671,327.42886 3.1377747,324.13495 1.8873033,321.66726 1.3360268,320.57937 0.68771767,318.47357 0.44661411,316.9877 -0.14384065,313.34883 -0.15489855,17.381991 0.43527168,13.300485 1.193735,8.0550733 4.1538649,3.9569271 8.8499856,1.6507633 L 11.255059,0.46968093 164.34143,0.37616306 C 310.78319,0.28670831 317.52364,0.31582256 319.63604,1.0468798 Z M 118.69154,71.21077 c -2.69058,1.257045 -6.11468,4.655034 -7.42085,7.36426 -1.24714,2.586767 -1.65916,7.791609 -0.84654,10.693971 0.30099,1.075066 1.34436,3.032931 2.31858,4.350807 0.97423,1.31788 16.19108,16.919182 33.81524,34.669552 17.62415,17.75038 32.96796,33.27452 34.09735,34.4981 l 2.05343,2.22468 -1.60972,1.80949 c -0.88536,0.99523 -16.37153,16.64506 -34.41373,34.77742 -18.19928,18.29022 -33.47164,33.98213 -34.30359,35.24596 -1.91107,2.9031 -2.55623,5.54809 -2.30565,9.45261 0.34902,5.43843 3.28676,9.76442 8.31041,12.23756 2.56998,1.26519 3.19335,1.39572 6.66589,1.39572 3.15019,0 4.18654,-0.17522 5.83318,-0.98624 3.17116,-1.56187 10.44437,-8.58455 49.82995,-48.11353 29.74683,-29.85514 37.16525,-37.51902 37.97107,-39.22745 0.72948,-1.5466 1.05334,-3.11966 1.19246,-5.79206 0.30671,-5.89214 -0.18025,-6.86887 -7.11673,-14.27469 -10.15057,-10.83736 -78.71199,-78.952795 -80.26962,-79.747476 -4.286,-2.18665 -9.85927,-2.420335 -13.80113,-0.578684 z"
   id="path21" /><path
   style="fill:#0b5917;fill-opacity:1;stroke-width:0.424648"
   d="m 319.63604,1.0471892 c 4.45413,1.5408731 7.80746,4.8355931 9.35292,9.1894438 0.71649,2.018449 0.75369,9.668901 0.75369,154.997287 v 152.87405 l -1.22052,2.64233 c -1.43363,3.1037 -4.79331,6.5015 -7.80298,7.89149 l -2.01741,0.93173 H 164.9784 11.255059 L 9.2518872,328.64809 C 6.6127671,327.42886 3.1377747,324.13495 1.8873033,321.66726 1.3360268,320.57937 0.68771767,318.47357 0.44661411,316.9877 -0.14384065,313.34883 -0.15489855,17.381991 0.43527168,13.300485 1.2029711,7.9911812 4.0972377,3.9847461 8.8516843,1.6499301 L 11.255059,0.46968093 164.34143,0.37646418 C 310.76009,0.28731468 317.52397,0.31652381 319.63604,1.0471892 Z M 118.31671,71.542363 c -3.06911,1.510913 -5.55724,4.023475 -7.11357,7.18339 -0.83014,1.685479 -0.98787,2.675603 -0.99552,6.249301 -0.008,3.655047 0.13567,4.542227 1.03021,6.369751 1.13656,2.321974 5.79172,7.148422 45.6681,47.348485 12.6264,12.72889 23.60143,23.85045 24.38894,24.71459 l 1.43186,1.57116 -1.38428,1.61372 c -0.76136,0.88754 -12.88153,13.17481 -26.93371,27.30505 -38.25935,38.47183 -41.58325,41.91981 -42.98375,44.58826 -1.11524,2.12492 -1.22539,2.71857 -1.22123,6.58208 0.004,3.58713 0.15838,4.55748 0.99519,6.24929 1.57908,3.19256 4.04848,5.67238 7.18737,7.21774 2.56988,1.26522 3.19315,1.39572 6.66589,1.39572 4.81586,0 6.42774,-0.76129 11.68854,-5.52045 2.0654,-1.86846 21.016,-20.69108 42.11244,-41.82804 30.01832,-30.07596 38.63022,-38.93859 39.61314,-40.76641 1.06719,-1.98456 1.28197,-2.92008 1.42906,-6.22466 0.25426,-5.71258 -0.39014,-6.8825 -8.5307,-15.48755 -8.47635,-8.96 -75.59709,-75.814916 -77.73925,-77.431371 -4.19413,-3.164853 -10.26515,-3.613001 -15.30873,-1.130056 z"
   id="path22" /><path
   style="fill:#0b5917;fill-opacity:1;stroke-width:0.424648"
   d="m 319.63604,1.0468839 c 4.45459,1.5416487 7.80752,4.836084 9.35292,9.1897491 0.71649,2.018474 0.75369,9.677877 0.75369,155.209617 v 153.08637 l -1.33613,2.5548 c -1.4916,2.85211 -4.59412,5.9865 -7.41505,7.49123 l -1.86508,0.99487 H 164.9784 10.830409 L 8.9653289,328.57865 C 6.3218057,327.16855 3.0620766,323.98557 1.8873033,321.66726 1.3360268,320.57937 0.68771767,318.47357 0.44661411,316.9877 -0.14384065,313.34883 -0.15489855,17.381991 0.43527168,13.300485 1.1821845,8.1349374 4.0744383,4.0360776 8.6927291,1.5981366 L 10.830409,0.46968093 164.1291,0.37616718 C 310.77519,0.28671243 317.52362,0.31581843 319.63604,1.0468839 Z M 118.71849,71.319287 c -2.84824,1.303962 -5.74643,4.134825 -7.31259,7.142693 -1.05659,2.029236 -1.18159,2.71123 -1.19377,6.513074 -0.0209,6.539003 -0.38318,6.018556 15.22176,21.869476 5.63335,5.72216 20.80059,21.02655 33.70498,34.00975 12.90438,12.98319 23.46251,23.86246 23.46251,24.17613 0,0.31368 -11.22951,11.8578 -24.95448,25.6536 -41.06265,41.27458 -44.86026,45.2028 -46.21274,47.80206 -1.0977,2.10964 -1.21616,2.74636 -1.22459,6.58208 -0.009,4.03894 0.0618,4.3778 1.44631,6.93284 1.69222,3.12299 3.9657,5.25525 7.24798,6.79779 1.97703,0.92913 2.92229,1.09638 6.15743,1.08947 5.58601,-0.0119 6.46978,-0.57458 17.51536,-11.15094 14.2993,-13.69186 73.75426,-73.70351 75.23584,-75.94029 0.72584,-1.09581 1.52921,-2.76807 1.78527,-3.71612 0.71507,-2.64752 0.27125,-8.17625 -0.82722,-10.30484 -0.50713,-0.98269 -4.33407,-5.37782 -8.50434,-9.76695 -11.17319,-11.75959 -75.37287,-75.516299 -77.37539,-76.841505 -3.79734,-2.512966 -9.75705,-2.869696 -14.17232,-0.848318 z"
   id="path23" /><path
   style="fill:#0b5917;fill-opacity:1;stroke-width:0.424648"
   d="m 319.63604,1.0481008 c 4.45271,1.5385508 7.80726,4.834137 9.35292,9.1885322 0.71649,2.018474 0.75369,9.677877 0.75369,155.209617 v 153.08637 l -1.205,2.41533 c -1.35754,2.72107 -4.71903,6.12351 -7.53149,7.62321 l -1.87977,1.00236 H 164.9784 10.830409 L 8.9653289,328.57865 C 6.3218057,327.16855 3.0620766,323.98557 1.8873033,321.66726 1.3360268,320.57937 0.68771767,318.47357 0.44661411,316.9877 -0.14384065,313.34883 -0.15489855,17.381991 0.43527168,13.300485 1.2174135,7.8913026 4.2145049,3.7896748 9.0598561,1.4974329 l 2.6198539,-1.23940572 152.87404,0.01353 c 145.98947,0.0129112 152.97349,0.0478913 155.08229,0.77654772 z M 118.70837,71.323923 c -2.76612,1.266367 -5.79394,4.247471 -7.35477,7.241264 -0.99729,1.912911 -1.12944,2.654991 -1.14147,6.409867 -0.0126,3.926715 0.0822,4.422383 1.25798,6.582077 1.33639,2.45463 8.55596,9.908939 50.42265,52.062099 11.38974,11.46767 20.70862,21.10368 20.70862,21.41335 0,0.30967 -10.27527,10.8962 -22.83393,23.52562 -32.11203,32.29296 -44.36878,44.75178 -46.16472,46.92581 -2.86185,3.46434 -3.37286,4.87731 -3.38938,9.37181 -0.0129,3.50303 0.13448,4.35267 1.11908,6.4532 1.43604,3.06362 4.16545,5.80402 7.31596,7.34542 2.1079,1.0313 2.98554,1.20606 6.15424,1.2255 6.80745,0.0418 5.54441,1.08337 39.04242,-32.19807 29.22669,-29.03775 53.8354,-54.30094 54.895,-56.35497 1.29777,-2.51572 1.61224,-7.90952 0.63301,-10.85767 -0.38772,-1.16733 -1.75731,-3.41068 -3.07659,-5.03937 -1.30779,-1.61449 -20.38522,-20.9159 -42.3943,-42.89201 -40.82964,-40.768509 -41.29213,-41.199093 -45.39386,-42.261891 -2.41055,-0.624595 -7.2852,-0.103323 -9.79994,1.047964 z"
   id="path24" /></svg>
