<?xml version="1.0" encoding="UTF-8" standalone="no"?>
<!-- Uploaded to: SVG Repo, www.svgrepo.com, Generator: SVG Repo Mixer Tools -->

<svg
   fill="#000000"
   height="800px"
   width="800px"
   version="1.1"
   id="Layer_1"
   viewBox="0 0 330 330"
   xml:space="preserve"
   sodipodi:docname="scroll_down_btn.svg"
   inkscape:version="1.3.2 (091e20e, 2023-11-25, custom)"
   xmlns:inkscape="http://www.inkscape.org/namespaces/inkscape"
   xmlns:sodipodi="http://sodipodi.sourceforge.net/DTD/sodipodi-0.dtd"
   xmlns="http://www.w3.org/2000/svg"
   xmlns:svg="http://www.w3.org/2000/svg"><defs
   id="defs1" /><sodipodi:namedview
   id="namedview1"
   pagecolor="#ffffff"
   bordercolor="#000000"
   borderopacity="0.25"
   inkscape:showpageshadow="2"
   inkscape:pageopacity="0.0"
   inkscape:pagecheckerboard="0"
   inkscape:deskcolor="#d1d1d1"
   inkscape:zoom="1.37375"
   inkscape:cx="400"
   inkscape:cy="283.53048"
   inkscape:window-width="2560"
   inkscape:window-height="1334"
   inkscape:window-x="-11"
   inkscape:window-y="-11"
   inkscape:window-maximized="1"
   inkscape:current-layer="Layer_1" />
<path
   id="XMLID_24_"
   d="M315,0H15C6.716,0,0,6.716,0,15v300c0,8.284,6.716,15,15,15h300c8.284,0,15-6.716,15-15V15  C330,6.716,323.284,0,315,0z M255.606,135.606l-79.998,80c-2.813,2.813-6.628,4.394-10.606,4.394c-3.979,0-7.793-1.58-10.607-4.394  l-80.002-80c-5.858-5.857-5.858-15.355,0-21.213c5.857-5.858,15.355-5.858,21.213,0l69.396,69.393l69.392-69.393  c5.857-5.858,15.355-5.858,21.213,0C261.465,120.251,261.465,129.749,255.606,135.606z"
   style="fill:#0b5917;fill-opacity:1" />
<path
   style="fill:#ffffff;stroke-width:0.727934"
   d="m 393.81256,532.39723 c -2.202,-0.35451 -6.46042,-1.82825 -9.46315,-3.27496 -5.32593,-2.56602 -7.90612,-5.07295 -105.44922,-102.45503 C 213.53728,361.41223 177.92636,325.34825 176.0687,322.52748 c -9.47897,-14.39335 -7.11371,-33.59286 5.60405,-45.48971 5.4285,-5.07809 10.92864,-7.83869 18.6473,-9.35935 5.16643,-1.01784 6.23153,-1.01249 11.66817,0.0586 12.77377,2.51657 5.93885,-3.66219 101.76005,91.99088 l 86.26873,86.11737 83.70397,-83.74966 c 46.03717,-46.06231 85.83317,-85.36819 88.43554,-87.34639 8.56562,-6.51119 18.37863,-8.95189 28.05661,-6.97827 7.57948,1.54567 12.61384,4.12159 18.11783,9.27031 12.73352,11.91159 15.09773,31.34594 5.54034,45.54288 -1.7582,2.6117 -41.51686,42.86113 -102.81399,104.08312 -97.69749,97.5777 -100.07009,99.88355 -105.40671,102.44138 -3.00273,1.4392 -7.58872,2.94876 -10.19108,3.35456 -5.35076,0.83439 -6.08044,0.83026 -11.64695,-0.0659 z"
   id="path1"
   transform="scale(0.4125)" /><path
   style="fill:#ffffff;stroke-width:0.727934"
   d="m 393.81256,532.39723 c -2.202,-0.35451 -6.46042,-1.82825 -9.46315,-3.27496 -5.32593,-2.56602 -7.90612,-5.07295 -105.44922,-102.45503 C 213.53728,361.41223 177.92636,325.34825 176.0687,322.52748 c -9.47768,-14.39139 -7.11354,-33.59302 5.60035,-45.48624 12.07045,-11.29131 28.36071,-13.08125 43.04551,-4.72975 2.3286,1.32432 32.12743,30.57824 89.39627,87.76152 l 85.90336,85.77504 83.70537,-83.75106 c 46.03796,-46.06308 85.83458,-85.36959 88.43695,-87.34779 8.62909,-6.55944 18.32356,-8.96313 28.10488,-6.96843 7.53183,1.53596 12.57489,4.12048 18.06956,9.26047 12.73352,11.91159 15.09773,31.34594 5.54034,45.54288 -1.7582,2.6117 -41.51686,42.86113 -102.81399,104.08312 -97.69749,97.5777 -100.07009,99.88355 -105.40671,102.44138 -3.00273,1.4392 -7.58872,2.94876 -10.19108,3.35456 -5.35076,0.83439 -6.08044,0.83026 -11.64695,-0.0659 z"
   id="path2"
   transform="scale(0.4125)" /><path
   style="fill:#ffffff;stroke-width:0.727934"
   d="m 392.54789,532.10984 c -10.68238,-2.32083 -4.813,3.12691 -113.6477,-105.48356 -65.42983,-65.29502 -100.97193,-101.27514 -102.83149,-104.0988 -9.47768,-14.39139 -7.11354,-33.59302 5.60035,-45.48624 11.32768,-10.59649 26.35961,-12.87257 40.33885,-6.10796 5.32181,2.57525 7.83351,5.00589 91.73398,88.77348 l 86.26236,86.12573 85.89415,-85.76754 c 57.27556,-57.19114 87.05793,-86.42932 89.38705,-87.75374 8.3544,-4.75061 16.79107,-6.24961 25.24331,-4.48515 7.35289,1.53497 12.36622,4.13009 17.8022,9.21518 12.76769,11.94354 15.12338,31.30785 5.54034,45.54288 -1.7582,2.6117 -41.51686,42.86113 -102.81399,104.08312 -97.69749,97.5777 -100.07009,99.88355 -105.40671,102.44138 -5.02971,2.41073 -12.31032,4.16757 -16.74249,4.04002 -1.00091,-0.0288 -3.863,-0.49627 -6.36021,-1.0388 z"
   id="path3"
   transform="scale(0.4125)" /><path
   style="fill:#ffffff;stroke-width:0.727934"
   d="m 392.54789,532.10984 c -10.68238,-2.32083 -4.813,3.12691 -113.6477,-105.48356 -65.42983,-65.29502 -100.97193,-101.27514 -102.83149,-104.0988 -9.47768,-14.39139 -7.11354,-33.59302 5.60035,-45.48624 5.49496,-5.14027 10.53775,-7.72451 18.07107,-9.26078 7.51187,-1.53189 14.53513,-0.54951 22.23748,3.11045 5.39639,2.56423 7.15658,4.26714 91.76286,88.77656 l 86.26094,86.16219 86.25954,-86.16245 c 84.60856,-84.51334 86.36484,-86.21248 91.76147,-88.77657 14.16036,-6.72797 29.00032,-4.42768 40.43346,6.26745 3.53708,3.30877 5.41333,5.85916 7.68903,10.45172 2.77412,5.59841 3.03753,6.64149 3.35805,13.29761 0.42439,8.81332 -1.20746,15.10437 -5.61713,21.65494 -1.77961,2.64362 -41.09761,42.43398 -102.82852,104.06392 -109.20695,109.02829 -102.88276,103.17194 -113.94552,105.51619 -5.95914,1.26277 -8.62892,1.25679 -14.56389,-0.0326 z"
   id="path4"
   transform="scale(0.4125)" /><path
   style="fill:#ffffff;stroke-width:0.727934"
   d="m 392.54789,532.10984 c -10.68238,-2.32083 -4.813,3.12691 -113.6477,-105.48356 -65.42983,-65.29502 -100.97193,-101.27514 -102.83149,-104.0988 -9.0185,-13.69414 -7.40066,-31.89029 3.89755,-43.83647 11.35904,-12.01051 27.02511,-14.90736 42.05377,-7.77626 5.34304,2.53528 7.29977,4.4287 91.72044,88.75272 l 86.26094,86.16219 86.25954,-86.16245 c 84.60856,-84.51334 86.36484,-86.21248 91.76147,-88.77657 14.16036,-6.72797 29.00032,-4.42768 40.43346,6.26745 3.53708,3.30877 5.41333,5.85916 7.68903,10.45172 2.77412,5.59841 3.03753,6.64149 3.35805,13.29761 0.42439,8.81332 -1.20746,15.10437 -5.61713,21.65494 -1.77961,2.64362 -41.09761,42.43398 -102.82852,104.06392 -109.20695,109.02829 -102.88276,103.17194 -113.94552,105.51619 -5.95914,1.26277 -8.62892,1.25679 -14.56389,-0.0326 z"
   id="path5"
   transform="scale(0.4125)" /><path
   style="fill:#ffffff;stroke-width:0.727934"
   d="M 392.09032,532.05717 C 381.659,529.5323 387.05725,534.56049 278.90019,426.62628 213.47036,361.33126 177.92826,325.35114 176.0687,322.52748 c -3.8807,-5.89265 -5.73394,-12.23876 -5.72415,-19.60143 0.0126,-9.46252 3.16647,-17.40959 9.6153,-24.22827 11.421,-12.07603 26.89309,-14.93467 42.06017,-7.77108 5.35121,2.52744 7.17059,4.28772 91.72044,88.74077 l 86.26094,86.16219 86.25954,-86.16245 c 84.96751,-84.87189 86.34298,-86.20211 91.83116,-88.81009 14.23029,-6.76224 28.84666,-4.47272 40.39157,6.32698 3.50802,3.28159 5.39074,5.84366 7.66123,10.42571 2.77412,5.59841 3.03753,6.64149 3.35805,13.29761 0.42439,8.81332 -1.20746,15.10437 -5.61713,21.65494 -1.77961,2.64362 -41.09761,42.43398 -102.82852,104.06392 -109.20695,109.02829 -102.88276,103.17194 -113.94552,105.51619 -6.03161,1.27813 -9.46923,1.25861 -15.02146,-0.0853 z"
   id="path6"
   transform="scale(0.4125)" /><path
   style="fill:#ffffff;stroke-width:0.727934"
   d="M 392.09032,532.05717 C 381.659,529.5323 387.05725,534.56049 278.90019,426.62628 213.12128,360.9829 177.93326,325.35858 176.0543,322.5052 c -4.32015,-6.56056 -5.94564,-12.76384 -5.59994,-21.37079 0.25389,-6.3211 0.56631,-7.66069 2.96429,-12.71015 7.40086,-15.58411 23.66213,-24.04198 39.69503,-20.64631 11.39448,2.41328 6.10086,-2.42334 100.62678,91.93955 l 86.26094,86.11216 86.25954,-86.11243 c 94.52557,-94.36437 89.22984,-89.52578 100.62538,-91.93928 16.0329,-3.39567 32.29417,5.0622 39.69503,20.64631 2.39798,5.04946 2.71041,6.38905 2.9643,12.71015 0.34747,8.65121 -1.32735,14.99204 -5.65983,21.42795 -1.77961,2.64362 -41.09761,42.43398 -102.82852,104.06392 -108.55088,108.3733 -102.68225,102.91925 -113.48174,105.46487 -5.67465,1.33761 -9.85654,1.32844 -15.48524,-0.034 z"
   id="path7"
   transform="scale(0.4125)" /><path
   style="fill:#ffffff;stroke-width:0.727934"
   d="m 392.35669,532.21444 c -10.25301,-2.24223 -4.97634,2.66849 -113.4565,-105.58816 C 213.12128,360.9829 177.93326,325.35858 176.0543,322.5052 c -4.33715,-6.58638 -5.94595,-12.75634 -5.59626,-21.4625 0.26769,-6.66462 0.4982,-7.58276 3.3474,-13.33267 9.18563,-18.53739 30.1105,-25.76976 48.44735,-16.74511 4.96742,2.44476 9.50637,6.84632 91.48767,88.71856 l 86.26094,86.14618 86.25954,-86.11243 c 94.52557,-94.36437 89.22984,-89.52578 100.62538,-91.93928 14.43147,-3.05649 29.81719,3.82574 37.93565,16.96912 6.86909,11.12073 6.47498,26.80668 -0.95068,37.83705 -1.76035,2.61488 -41.44208,42.77063 -102.81399,104.04216 -108.55088,108.3733 -102.68225,102.91925 -113.48174,105.46487 -5.48666,1.2933 -9.71227,1.32753 -15.21887,0.12329 z"
   id="path8"
   transform="scale(0.4125)" /><path
   style="fill:#ffffff;stroke-width:0.727934"
   d="m 393.08462,532.41403 c -10.98208,-2.14049 -7.84945,0.76573 -116.94688,-108.49412 -78.67652,-78.79365 -100.22352,-100.76059 -101.64766,-103.62874 -2.92946,-5.89975 -4.15341,-11.09373 -4.15341,-17.62551 0,-10.45707 3.62855,-18.51011 11.71269,-25.99459 11.17156,-10.3429 26.39264,-12.50326 40.20343,-5.70615 4.96742,2.44476 9.50637,6.84632 91.48767,88.71856 l 86.26094,86.14618 86.25954,-86.11243 c 94.52557,-94.36437 89.22984,-89.52578 100.62538,-91.93928 8.78773,-1.86118 18.38947,-0.0723 26.07169,4.85737 3.86448,2.47983 9.79353,8.5213 12.12121,12.35103 6.59222,10.84619 6.08059,26.77111 -1.20793,37.59777 -1.76035,2.61488 -41.44208,42.77063 -102.81399,104.04216 -108.55088,108.3733 -102.68225,102.91925 -113.48174,105.46487 -5.11482,1.20565 -9.46455,1.30257 -14.49094,0.32288 z"
   id="path9"
   transform="scale(0.4125)" /><path
   style="fill:#ffffff;stroke-width:0.727934"
   d="M 391.74008,532.09355 C 381.93107,529.96471 384.68341,532.5406 276.50169,424.24279 197.49914,345.15546 175.9149,323.16074 174.49006,320.29117 c -2.92945,-5.89979 -4.15339,-11.09375 -4.15339,-17.62551 0,-10.44831 3.62932,-18.51082 11.69334,-25.97668 11.2359,-10.40246 26.34739,-12.55296 40.22278,-5.72406 4.96742,2.44476 9.50637,6.84632 91.48767,88.71856 l 86.26094,86.14618 86.25954,-86.11243 c 94.52557,-94.36437 89.22984,-89.52578 100.62538,-91.93928 8.78773,-1.86118 18.38947,-0.0723 26.07169,4.85737 3.86448,2.47983 9.79353,8.5213 12.12121,12.35103 6.59222,10.84619 6.08059,26.77111 -1.20793,37.59777 -1.76035,2.61488 -41.44208,42.77063 -102.81399,104.04216 -108.55088,108.3733 -102.68225,102.91925 -113.48174,105.46487 -5.64145,1.32979 -9.71644,1.3304 -15.83548,0.002 z"
   id="path10"
   transform="scale(0.4125)" /><path
   style="fill:#ffffff;stroke-width:0.727934"
   d="M 391.29918,532.09138 C 381.68675,529.65908 383.60796,531.464 276.50169,424.24279 197.49914,345.15546 175.9149,323.16074 174.49006,320.29117 c -2.92945,-5.89979 -4.15339,-11.09375 -4.15339,-17.62551 0,-10.43624 3.63036,-18.51179 11.66676,-25.95208 11.30665,-10.46796 25.99313,-12.60735 40.01659,-5.82924 5.30901,2.56606 7.83745,5.01378 91.72044,88.79206 l 86.26094,86.15326 86.25954,-86.14644 c 81.98429,-81.87681 86.51858,-86.27393 91.48627,-88.71857 13.87605,-6.82851 28.98704,-4.67798 40.22278,5.72433 8.16298,7.55748 11.69334,15.44698 11.69334,26.13177 0,6.77443 -1.54967,12.78282 -4.7339,18.35428 -2.9187,5.10685 -199.28662,201.66899 -205.63917,205.84256 -2.60236,1.70973 -6.36127,3.66027 -8.35313,4.33454 -5.12794,1.73588 -14.33029,2.08229 -19.63795,0.73925 z"
   id="path11"
   transform="scale(0.4125)" /><path
   style="fill:#ffffff;stroke-width:0.727934"
   d="m 390.83613,531.92498 c -2.64101,-0.71631 -6.89338,-2.67221 -9.46315,-4.35263 -3.31631,-2.16861 -33.66549,-32.07657 -104.87129,-103.34664 -79.01626,-79.08759 -100.58654,-101.06447 -102.01163,-103.93454 -2.92945,-5.89979 -4.15339,-11.09375 -4.15339,-17.62551 0,-10.43624 3.63036,-18.51179 11.66676,-25.95208 11.30665,-10.46796 25.99313,-12.60735 40.01659,-5.82924 5.30901,2.56606 7.83745,5.01378 91.72044,88.79206 l 86.26094,86.15326 86.25954,-86.14644 c 81.98429,-81.87681 86.51858,-86.27393 91.48627,-88.71857 13.87605,-6.82851 28.98704,-4.67798 40.22278,5.72433 8.13608,7.53258 11.70004,15.46731 11.6847,26.01464 -0.005,3.26733 -0.4468,7.57845 -0.98233,9.58027 -2.52685,9.44531 1.38723,5.27638 -104.8121,111.63709 -71.33661,71.445 -101.18919,100.87726 -104.57,103.09766 -2.60236,1.70915 -6.36127,3.65922 -8.35313,4.33349 -5.5376,1.87455 -14.37326,2.12635 -20.101,0.57285 z"
   id="path12"
   transform="scale(0.4125)" /><path
   style="fill:#ffffff;stroke-width:0.727934"
   d="m 391.34084,532.05228 c -9.30791,-2.25226 -6.11439,0.74656 -113.79088,-106.85346 l -101.33993,-101.26797 -2.69469,-5.82348 c -2.44238,-5.27823 -2.72464,-6.53911 -3.01465,-13.46679 -0.27163,-6.48865 -0.0797,-8.3581 1.27051,-12.37488 2.11043,-6.27843 5.0634,-10.76668 10.23223,-15.55212 11.30669,-10.46799 25.99325,-12.60737 40.01659,-5.82919 5.30859,2.56591 7.83433,5.01069 91.37165,88.4432 47.25169,47.1924 86.22544,85.80435 86.60833,85.80435 0.38289,0 39.35664,-38.60877 86.60833,-85.79727 81.64308,-81.53391 86.17186,-85.92509 91.13888,-88.3697 13.82221,-6.80286 28.96023,-4.70312 40.03875,5.55363 8.32739,7.7097 11.88419,15.55676 11.86873,26.18502 -0.005,3.26733 -0.4468,7.57845 -0.98233,9.58027 -2.53498,9.47576 1.59766,5.08723 -106.62864,113.23068 -94.15151,94.07943 -102.01109,101.75093 -106.39313,103.84708 -7.92298,3.78998 -16.04937,4.68941 -24.30975,2.69063 z"
   id="path13"
   transform="scale(0.4125)" /><path
   style="fill:#ffffff;stroke-width:0.727934"
   d="m 391.34084,532.09885 c -9.37656,-2.37062 -6.2144,0.60005 -113.79088,-106.90003 l -101.33993,-101.26797 -2.69469,-5.82348 c -2.44238,-5.27823 -2.72464,-6.53911 -3.01465,-13.46679 -0.27163,-6.48865 -0.0797,-8.3581 1.27051,-12.37488 2.11043,-6.27843 5.0634,-10.76668 10.23223,-15.55212 11.30669,-10.46799 25.99325,-12.60737 40.01659,-5.82919 5.30859,2.56591 7.83433,5.01069 91.37165,88.4432 47.25169,47.1924 86.22544,85.80435 86.60833,85.80435 0.38289,0 39.35664,-38.61195 86.60833,-85.80435 83.59957,-83.49467 86.0591,-85.87523 91.37165,-88.43763 14.06292,-6.78296 29.15105,-4.59846 40.05145,5.79876 8.21193,7.83286 11.63855,15.50223 11.62326,26.0149 -0.005,3.26733 -0.4468,7.57845 -0.98233,9.58027 -2.52779,9.44886 1.42265,5.24362 -105.17605,111.95971 -65.66268,65.73499 -101.70792,101.30836 -104.57001,103.2011 -2.40219,1.58858 -6.00546,3.39703 -8.00728,4.01876 -5.27755,1.63914 -14.43278,1.93626 -19.57818,0.63539 z"
   id="path14"
   transform="scale(0.4125)" /><path
   style="fill:#ffffff;stroke-width:0.727934"
   d="m 392.35669,532.46159 c -1.80164,-0.37564 -5.40492,-1.7292 -8.00728,-3.0079 -4.33035,-2.12778 -13.35267,-10.93428 -106.39742,-103.85228 l -101.66586,-101.52735 -2.74384,-5.84703 c -2.51367,-5.35654 -2.76975,-6.49223 -3.0527,-13.53839 -0.26182,-6.51983 -0.0666,-8.41208 1.28161,-12.42294 5.6539,-16.82009 22.88074,-27.67261 39.51178,-24.89154 3.01696,0.5045 7.61605,2.01063 10.73704,3.51621 5.30347,2.55842 7.83129,4.99785 88.44404,85.3512 45.64149,45.49463 84.53692,84.1711 86.43428,85.94771 l 3.44977,3.23021 86.08618,-85.94249 c 83.68983,-83.55013 86.23816,-86.01595 91.54569,-88.5814 3.13206,-1.51392 7.70938,-3.01515 10.73704,-3.52144 13.60133,-2.27443 27.63483,4.39298 35.8766,17.04523 3.94554,6.05694 5.34611,11.9719 4.92171,20.78555 -0.29557,6.13796 -0.69918,7.96974 -2.7742,12.59049 -2.41401,5.37563 -3.02034,6.0005 -102.93777,106.08524 -66.01493,66.12547 -102.0084,101.66867 -104.87706,103.56506 -2.40219,1.58802 -6.00546,3.396 -8.00728,4.01773 -4.48827,1.394 -14.16742,1.91446 -18.56233,0.99813 z"
   id="path15"
   transform="scale(0.4125)" /></svg>
